<?xml version="1.0" standalone="no"?>
<!DOCTYPE svg PUBLIC "-//W3C//DTD SVG 20010904//EN"
 "http://www.w3.org/TR/2001/REC-SVG-20010904/DTD/svg10.dtd">
<svg version="1.0" xmlns="http://www.w3.org/2000/svg"
 width="600.000000pt" height="600.000000pt" viewBox="0 0 600.000000 600.000000"
 preserveAspectRatio="xMidYMid meet">
<metadata>
Created by potrace 1.11, written by Peter Selinger 2001-2013
</metadata>
<g transform="translate(0.000000,600.000000) scale(0.100000,-0.100000)"
fill="#000000" stroke="none">
<path d="M2755 5994 c-16 -2 -73 -9 -125 -15 -359 -40 -785 -180 -1109 -365
-260 -149 -435 -285 -668 -520 l-172 -174 -76 0 -75 0 0 -105 0 -104 -51 -78
c-239 -366 -401 -813 -461 -1268 -8 -61 -13 -204 -13 -365 0 -378 37 -616 145
-942 87 -261 208 -513 341 -710 l39 -57 0 -640 0 -639 1235 -4 c679 -2 1800
-2 2490 0 l1255 4 0 669 0 669 33 52 c226 357 381 794 439 1233 8 61 13 204
13 365 0 161 -5 304 -13 365 -54 408 -195 825 -393 1157 l-79 132 0 133 0 133
-95 0 -96 0 -172 174 c-176 177 -289 273 -457 388 -368 252 -793 418 -1255
490 -99 15 -191 21 -390 23 -143 2 -273 1 -290 -1z m661 -43 c549 -83 1020
-287 1449 -627 108 -86 405 -375 405 -394 0 -14 -2103 -14 -2150 0 -19 6 -82
14 -140 17 -82 4 -118 2 -162 -11 -50 -14 -161 -16 -1072 -16 -669 0 -1016 3
-1016 10 0 19 297 308 405 394 478 379 1021 594 1645 650 116 10 509 -4 636
-23z m-448 -1028 c-16 -2 -40 -2 -55 0 -16 2 -3 4 27 4 30 0 43 -2 28 -4z
m-2306 -35 c-5 -7 -33 -44 -61 -81 l-51 -68 0 80 0 81 61 0 c48 0 59 -3 51
-12z m1997 -38 c-60 -60 -69 -82 -69 -173 0 -59 -5 -79 -25 -112 -32 -53 -31
-66 10 -115 29 -35 34 -48 30 -74 -4 -19 2 -53 14 -89 19 -54 19 -58 3 -52
-102 43 -123 48 -252 55 -126 6 -141 9 -225 45 -70 30 -109 40 -175 45 -99 8
-113 13 -134 45 -40 61 -233 145 -401 175 -123 23 -232 56 -295 91 -28 16 -43
33 -51 58 -15 48 -33 67 -104 112 l-60 39 892 0 892 0 -50 -50z m523 38 c48
-14 88 -50 88 -79 0 -13 21 -44 50 -75 39 -41 50 -60 50 -86 1 -18 11 -76 24
-128 13 -52 22 -98 19 -102 -2 -5 -18 -8 -34 -8 -32 0 -31 2 -47 -84 -7 -32
-14 -61 -17 -64 -3 -3 -21 2 -40 11 -36 17 -58 14 -88 -12 -18 -15 -20 -14
-38 8 -27 33 -24 69 12 145 26 56 31 78 31 145 0 57 -5 88 -17 113 -10 18 -27
50 -38 71 -28 55 -64 69 -171 71 -69 0 -100 -4 -127 -17 -34 -17 -40 -26 -69
-114 l-31 -96 20 -94 c23 -101 27 -203 11 -233 -11 -21 -88 -46 -100 -33 -18
17 -48 130 -43 159 4 24 -3 39 -32 73 -19 24 -34 47 -32 50 47 86 58 124 52
171 -11 80 33 150 129 207 28 17 384 17 438 1z m1853 -18 c-27 -16 -57 -30
-65 -30 -25 0 -80 -39 -80 -55 0 -73 -123 -141 -290 -160 -130 -15 -248 -39
-285 -58 -22 -11 -83 -55 -135 -98 l-95 -77 -115 -22 c-86 -16 -131 -30 -178
-57 l-63 -35 -36 17 c-53 26 -204 16 -242 -14 -14 -12 -42 -28 -61 -36 -19 -8
-52 -24 -73 -36 l-38 -20 -26 21 c-14 11 -32 20 -39 20 -22 0 -16 18 7 25 13
4 34 0 54 -11 28 -15 36 -15 49 -5 18 16 36 73 36 119 0 30 2 32 35 32 23 0
38 6 41 15 4 9 -3 57 -15 108 -11 50 -24 112 -27 136 -5 34 -19 57 -56 98 -29
33 -48 63 -48 77 0 16 -12 34 -32 50 l-33 26 930 0 930 0 -50 -30z m230 10
c-26 -29 -6 -49 30 -30 26 14 42 9 30 -10 -3 -6 -39 -27 -78 -46 -80 -40 -107
-61 -107 -81 0 -20 44 -16 73 7 26 20 47 26 47 13 -1 -19 -19 -33 -81 -63 -36
-17 -83 -49 -105 -71 -34 -35 -43 -39 -86 -39 -73 0 -146 -33 -296 -134 -231
-156 -283 -180 -432 -197 -75 -9 -100 -18 -236 -85 -167 -83 -165 -83 -227
-25 l-28 26 -227 3 c-125 2 -231 7 -235 11 -10 10 37 45 73 56 14 4 42 18 63
33 21 14 61 29 90 34 56 9 154 1 163 -13 10 -17 48 -9 108 25 46 26 89 39 175
54 107 20 116 23 170 67 179 146 196 154 396 180 140 18 206 34 269 66 56 28
80 53 95 101 11 33 18 39 61 52 27 8 62 24 79 37 35 26 117 47 185 48 49 1 49
1 31 -19z m225 -87 c0 -60 -4 -103 -9 -97 -4 5 -35 45 -67 89 -32 44 -65 88
-72 97 -12 17 -8 18 67 18 l81 0 0 -107z m-4530 58 c75 -45 100 -70 100 -99 0
-66 149 -137 362 -173 167 -28 323 -93 385 -160 42 -45 60 -52 153 -59 70 -5
103 -14 185 -50 98 -43 103 -44 240 -50 116 -5 149 -10 193 -29 28 -13 52 -27
52 -32 0 -5 -15 -16 -32 -26 -24 -12 -70 -18 -173 -23 -137 -6 -142 -7 -208
-43 l-69 -36 -65 44 c-53 36 -74 45 -109 45 -30 0 -62 10 -106 34 -39 21 -90
38 -133 45 -169 28 -273 73 -428 185 -28 21 -70 40 -105 47 -31 7 -79 28 -106
46 -34 23 -60 33 -86 33 -28 0 -50 9 -82 33 -24 19 -74 50 -110 71 -61 34
-101 66 -83 66 5 0 30 -14 57 -31 50 -33 78 -33 78 -1 0 27 -16 37 -83 57 -49
14 -77 36 -77 59 0 2 15 6 33 8 24 2 32 8 32 23 0 15 -8 21 -32 23 -21 2 -33
9 -33 18 0 11 18 13 98 11 91 -2 101 -5 152 -36z m-233 -12 l28 -1 -30 -7
c-35 -7 -43 -32 -21 -65 11 -17 12 -26 3 -35 -16 -16 35 -66 98 -98 28 -14 74
-43 103 -65 40 -30 67 -42 107 -47 35 -5 63 -16 84 -33 17 -15 44 -29 61 -32
16 -3 43 -9 59 -12 17 -3 67 -32 113 -66 46 -33 96 -67 112 -75 52 -27 168
-63 270 -83 64 -13 118 -31 153 -51 38 -22 67 -31 95 -31 43 1 75 -13 118 -48
l25 -21 -98 6 c-80 6 -106 4 -148 -11 -50 -18 -51 -18 -114 5 -56 19 -89 23
-252 27 -103 3 -194 7 -201 9 -7 3 -66 -3 -130 -12 -65 -9 -130 -13 -145 -10
-14 4 -39 21 -55 38 -23 24 -40 32 -78 36 -27 3 -61 14 -76 24 -38 27 -148 27
-173 -1 -26 -29 -13 -48 37 -53 36 -3 34 -4 -17 -5 -33 -1 -70 -5 -82 -8 l-23
-6 0 295 0 296 67 90 c57 76 69 87 75 71 5 -13 17 -20 35 -21z m4658 -51 c17
-23 47 -66 68 -96 l37 -55 0 -285 c0 -223 -3 -283 -12 -274 -7 7 -23 12 -36
12 -18 0 -22 4 -17 19 7 24 -19 45 -46 38 -12 -3 -33 2 -47 11 -20 13 -47 17
-117 16 -109 -2 -162 -15 -221 -57 l-46 -32 -331 0 c-300 0 -336 -2 -371 -18
-37 -18 -41 -18 -84 -1 -35 13 -64 15 -135 11 l-90 -5 74 40 c119 63 179 85
253 93 140 14 201 42 426 191 180 120 245 149 308 139 41 -6 45 -5 85 39 26
27 69 57 110 77 38 18 75 43 84 55 16 25 10 64 -10 64 -7 0 7 9 31 20 23 10
42 24 42 30 0 20 15 9 45 -32z m-2310 -12 c20 -9 35 -22 35 -31 0 -9 12 -32
26 -51 l26 -34 -76 0 c-54 0 -76 -4 -76 -12 0 -10 22 -12 81 -11 l81 2 -4 -87
c-4 -69 -10 -98 -31 -139 -31 -60 -34 -112 -10 -153 16 -28 51 -50 77 -50 7 0
25 -9 38 -20 19 -14 24 -26 21 -45 -3 -15 -1 -25 6 -25 6 0 11 7 11 16 0 13 3
14 14 4 10 -8 82 -12 240 -13 l225 -2 35 -34 c20 -19 34 -36 32 -38 -2 -2 -36
-13 -77 -24 -129 -35 -262 -141 -354 -279 -26 -39 -56 -75 -67 -81 -13 -7 -61
-10 -124 -7 -141 5 -160 20 -189 152 -4 20 -9 26 -17 18 -6 -6 -16 -8 -24 -5
-10 4 -12 -6 -8 -44 7 -72 -8 -94 -91 -122 -88 -30 -198 -34 -237 -9 -15 10
-81 89 -147 176 -122 162 -148 185 -221 197 -19 3 -48 12 -65 19 l-30 12 49
29 c60 35 105 44 231 45 83 0 109 4 150 23 28 13 56 22 63 20 6 -3 12 2 12 9
0 8 19 19 45 26 64 17 79 45 77 139 -2 42 -10 107 -18 145 -17 76 -15 116 11
193 23 69 28 78 56 92 34 18 181 16 224 -1z m-2229 -77 c8 -14 -10 -11 -32 6
-18 13 -18 14 4 8 12 -3 25 -9 28 -14z m-318 -2532 l-3 -832 -21 35 c-12 19
-40 65 -62 101 -154 251 -292 601 -355 904 -50 239 -62 352 -62 625 0 273 12
386 62 625 63 303 201 653 355 904 22 36 50 82 62 101 l21 35 3 -833 c1 -457
1 -1207 0 -1665z m5041 2343 c155 -261 282 -587 344 -885 50 -239 62 -352 62
-625 0 -335 -33 -568 -122 -860 -73 -244 -219 -562 -333 -730 -6 -10 -10 497
-10 1590 0 1093 4 1600 10 1590 6 -8 28 -44 49 -80z m-4774 -352 c16 -13 47
-23 78 -26 42 -4 57 -11 84 -40 l33 -35 98 9 c53 5 209 7 346 6 218 -3 255 -6
298 -23 59 -23 89 -24 147 -3 37 13 59 13 138 4 52 -6 101 -9 109 -6 7 3 38
-6 68 -19 31 -14 72 -26 91 -28 47 -6 75 -33 195 -193 104 -138 145 -180 187
-190 36 -10 139 1 208 21 82 24 115 59 116 122 l1 48 13 -48 c20 -71 38 -92
92 -108 60 -18 198 -18 239 -1 19 8 43 33 63 67 46 76 143 179 214 227 84 57
220 97 371 110 101 8 125 7 160 -6 51 -20 79 -20 114 -2 49 25 108 28 339 16
279 -14 337 -8 423 46 60 37 65 38 174 42 94 4 114 2 125 -12 8 -9 28 -16 47
-16 29 0 34 -3 34 -24 0 -25 30 -43 50 -31 5 3 10 2 10 -4 0 -5 -12 -16 -27
-23 -15 -7 -25 -17 -23 -23 3 -6 -23 -12 -62 -16 -78 -6 -103 -21 -87 -51 10
-18 17 -20 67 -14 46 6 54 4 44 -6 -8 -8 -58 -16 -135 -21 -126 -8 -137 -8
-322 -6 -112 1 -183 -11 -275 -47 -36 -15 -76 -18 -210 -18 -117 -1 -172 3
-187 12 -14 7 -76 15 -150 19 -105 5 -139 3 -187 -11 -48 -14 -81 -16 -180
-11 -116 7 -122 6 -150 -16 -51 -40 -104 -134 -122 -217 -9 -42 -28 -99 -42
-127 -19 -37 -25 -64 -24 -104 1 -39 -4 -64 -18 -86 -25 -40 -27 -133 -5 -195
12 -35 13 -55 5 -102 -8 -43 -8 -69 0 -92 7 -21 10 -116 8 -257 -1 -123 2
-318 6 -433 7 -155 6 -227 -4 -280 -18 -105 -20 -106 -77 -39 -122 143 -172
228 -173 295 0 20 -5 49 -10 63 -9 24 -13 26 -49 20 -25 -4 -41 -2 -46 5 -5 7
-20 9 -41 5 -46 -8 -72 8 -76 48 -2 27 -7 32 -28 32 -21 0 -29 -10 -53 -69
-49 -123 -102 -181 -239 -260 l-56 -33 -7 71 c-4 39 -10 175 -14 301 -8 279 4
386 50 484 25 53 31 81 33 141 2 46 11 98 24 135 29 78 28 105 -7 162 -33 55
-43 89 -66 223 -10 62 -28 120 -50 167 -19 40 -35 77 -35 82 0 5 -12 24 -27
42 -27 31 -27 32 -99 26 -86 -6 -202 7 -261 29 -33 13 -70 16 -182 12 -93 -2
-145 -8 -153 -16 -30 -30 -350 -7 -484 35 -67 20 -95 24 -150 19 -228 -18
-240 -18 -278 -2 -25 10 -68 16 -123 16 -57 0 -82 3 -78 11 5 6 22 8 47 4 29
-5 43 -3 49 6 14 24 -1 29 -88 29 -92 0 -107 12 -22 17 60 3 91 18 87 41 -3
13 -18 18 -72 22 -43 3 -71 10 -74 18 -3 9 14 12 61 12 36 0 71 2 79 5 7 3 17
-5 23 -17 8 -17 21 -25 57 -30 26 -3 57 -13 70 -22 23 -17 58 -22 58 -8 -1 12
-83 47 -125 52 -27 3 -40 10 -40 20 0 12 14 14 78 12 45 -2 77 0 77 6 0 11
-56 22 -112 22 -20 0 -40 5 -43 10 -3 6 -24 10 -46 10 -21 0 -39 4 -39 9 0 29
108 28 145 -1z m4695 -1451 l0 -1344 -41 -60 c-165 -246 -438 -526 -699 -714
l-75 -55 -21 23 c-31 31 -84 39 -143 19 -66 -21 -157 -21 -201 2 -44 22 -104
101 -131 172 -12 30 -39 125 -60 210 -21 85 -44 169 -51 185 -16 42 -61 108
-134 195 -82 100 -101 139 -114 240 -9 69 -18 97 -50 150 -38 63 -39 67 -38
155 1 83 -2 101 -47 230 -61 176 -92 245 -162 362 -55 93 -56 95 -63 196 -6
83 -14 118 -42 186 -32 77 -34 87 -25 138 7 42 6 67 -7 112 -22 78 -20 139 4
176 14 21 20 47 20 88 0 41 7 71 24 105 13 26 31 82 41 125 19 87 81 192 125
214 18 9 58 11 141 6 81 -4 126 -2 153 7 59 19 278 16 350 -5 49 -14 87 -16
215 -13 137 5 164 8 221 31 81 31 234 48 317 35 32 -5 76 -7 98 -3 22 3 92 9
157 13 91 6 120 11 136 26 36 32 17 49 -50 43 -32 -3 -58 -1 -58 4 0 4 35 9
78 11 73 3 77 4 76 26 0 15 5 22 18 22 10 0 21 7 24 15 4 8 8 15 10 15 2 0 4
-605 4 -1343z m-4825 1323 c-3 -5 -31 -10 -61 -10 -30 0 -54 5 -54 10 0 6 27
10 61 10 37 0 58 -4 54 -10z m-69 -85 c-11 -30 38 -48 108 -41 47 6 73 3 101
-8 46 -20 189 -23 241 -6 47 16 131 8 210 -18 117 -40 464 -61 500 -31 13 11
50 14 153 14 112 0 144 -3 181 -19 35 -15 72 -20 173 -22 70 -1 131 -2 137 -3
5 0 30 -43 55 -93 39 -77 51 -116 71 -228 20 -107 33 -148 62 -201 l36 -67
-27 -83 c-19 -56 -28 -105 -28 -147 -1 -48 -7 -78 -30 -125 -15 -34 -36 -100
-45 -147 -13 -70 -25 -100 -69 -170 -77 -123 -101 -175 -125 -265 -13 -48 -36
-101 -57 -133 -33 -49 -37 -61 -40 -135 -6 -133 -10 -143 -67 -206 -35 -38
-55 -70 -60 -94 -5 -28 -22 -50 -72 -94 -36 -32 -87 -87 -114 -123 -27 -36
-66 -85 -86 -110 -46 -57 -59 -88 -99 -235 -18 -66 -44 -149 -58 -185 -13 -36
-28 -92 -31 -125 -12 -104 -28 -172 -47 -204 -20 -33 -104 -81 -142 -81 -27 0
-43 -15 -48 -44 -3 -15 -20 -6 -104 54 -264 191 -483 405 -666 653 l-59 79 0
1323 0 1324 23 4 c12 2 24 5 26 6 2 0 1 -6 -3 -14z m2843 -1292 c7 -94 10
-105 43 -156 63 -95 128 -236 179 -386 44 -132 49 -155 49 -237 0 -83 2 -94
31 -139 41 -65 47 -81 58 -175 13 -99 20 -112 127 -246 103 -129 125 -171 153
-290 36 -158 78 -290 107 -344 68 -125 192 -180 301 -135 60 25 163 16 163
-15 0 -12 -99 -79 -168 -114 -42 -21 -65 -26 -113 -25 -66 2 -82 -9 -73 -48 5
-18 -2 -26 -36 -43 -78 -40 -106 -14 -139 123 -30 127 -58 175 -144 246 -74
61 -118 124 -131 186 -9 43 -36 80 -82 113 -55 40 -103 136 -154 305 -23 75
-61 179 -84 229 -24 51 -56 127 -70 168 -15 41 -38 92 -51 112 l-25 37 17 73
c19 87 22 385 5 516 -7 53 -9 147 -5 255 6 164 7 169 21 132 8 -22 17 -86 21
-142z m-939 -534 c8 -141 8 -173 -5 -209 -8 -23 -15 -50 -15 -60 0 -9 -14 -45
-31 -79 -23 -47 -64 -95 -170 -200 -147 -147 -166 -176 -189 -287 -17 -82 -42
-136 -98 -208 -26 -33 -56 -74 -66 -91 -10 -16 -48 -70 -84 -119 -74 -99 -94
-154 -81 -224 10 -50 1 -73 -44 -115 -29 -27 -29 -30 -23 -92 5 -51 3 -66 -10
-79 -8 -9 -17 -16 -20 -16 -10 0 -132 64 -179 95 -92 59 -108 89 -52 100 52
12 134 54 149 78 25 38 38 89 53 199 8 61 25 134 40 169 14 34 38 113 54 175
34 130 57 180 115 249 23 28 58 71 78 97 19 26 62 70 96 98 49 41 64 61 78
102 10 31 34 71 59 97 59 64 64 77 70 186 6 102 12 121 49 172 13 18 34 70 46
115 24 90 51 148 114 248 l41 65 7 -150 c4 -82 12 -225 18 -316z m390 198 c0
-13 8 -31 18 -39 22 -20 69 -31 77 -18 4 7 13 6 27 -1 11 -6 35 -9 53 -7 l33
4 7 -56 c4 -30 17 -77 29 -105 26 -57 107 -167 174 -237 l45 -46 -12 -49 c-7
-26 -28 -85 -47 -130 -31 -76 -34 -92 -34 -186 0 -88 -4 -116 -29 -190 -41
-121 -46 -176 -26 -293 13 -77 15 -126 10 -224 -15 -261 -4 -400 38 -476 20
-35 35 -44 132 -86 99 -43 118 -48 186 -48 83 0 139 -8 139 -20 0 -8 -101 -30
-155 -34 -16 -2 -53 -9 -80 -16 -46 -12 -54 -11 -92 9 -54 27 -126 27 -193 1
-57 -23 -92 -25 -122 -9 -19 10 -20 17 -14 113 5 78 3 112 -9 151 -46 146 -67
227 -75 293 -6 41 -22 102 -37 135 -26 58 -28 71 -26 182 0 66 6 138 11 160 6
22 20 76 31 119 18 69 21 108 21 300 0 148 5 262 17 347 15 119 15 129 -1 153
-11 18 -25 26 -46 26 -29 0 -30 -1 -30 -50 0 -31 -8 -65 -21 -90 -15 -29 -20
-54 -18 -92 2 -29 3 -111 2 -183 -1 -129 -2 -131 -52 -272 -27 -78 -53 -168
-57 -201 -6 -53 -3 -65 25 -123 l31 -64 0 -270 c0 -250 2 -273 21 -315 11 -25
32 -57 46 -72 23 -25 29 -40 32 -86 1 -7 21 -32 46 -55 37 -36 46 -52 51 -92
l7 -48 -34 7 c-19 4 -65 9 -104 10 -38 1 -80 8 -93 14 -12 7 -34 11 -48 10
-24 -3 -28 2 -41 45 -12 41 -12 53 2 92 26 78 16 142 -32 205 -35 46 -59 95
-102 204 -78 198 -85 306 -36 506 13 52 26 136 30 185 3 50 13 137 21 195 13
103 13 107 -11 205 -14 55 -28 135 -32 178 -6 72 -4 79 18 103 13 14 49 39 80
54 90 46 169 145 218 273 13 33 31 35 31 4z m73 -377 c-1 -41 -6 -208 -11
-370 -8 -279 -10 -300 -37 -395 -25 -86 -29 -118 -29 -235 -1 -125 1 -140 26
-200 15 -36 31 -99 37 -140 6 -41 28 -135 51 -208 34 -115 39 -140 33 -193
l-6 -60 -43 42 c-34 33 -44 51 -44 75 0 19 -8 38 -21 50 -12 10 -33 39 -48 64
l-26 45 -5 297 c-5 296 -5 296 -30 330 -43 58 -31 137 56 368 27 72 28 82 29
265 1 158 4 195 18 222 9 18 17 53 17 78 0 39 3 46 18 43 14 -3 17 -14 15 -78z
m-402 -282 c11 -49 10 -77 -4 -200 -10 -79 -17 -159 -17 -178 0 -19 -12 -82
-26 -140 -37 -151 -42 -274 -16 -377 30 -117 86 -254 146 -352 44 -73 51 -92
50 -135 0 -31 -7 -62 -17 -77 -16 -24 -16 -29 0 -80 22 -72 29 -79 77 -80 31
-2 34 -3 13 -6 -38 -6 -242 22 -392 54 -200 42 -444 122 -628 208 -53 24 -57
29 -44 44 19 21 22 46 13 99 -8 41 -6 45 34 88 l42 45 -7 73 c-8 87 -1 104 98
241 210 289 195 263 231 400 15 55 39 117 53 138 14 20 68 76 119 123 127 116
189 200 211 286 l17 68 17 -93 c9 -50 22 -118 30 -149z m870 12 c12 -36 43
-112 70 -168 27 -57 65 -161 85 -230 47 -165 100 -267 167 -325 45 -38 55 -54
76 -117 24 -75 43 -99 165 -209 55 -50 76 -91 107 -216 16 -65 30 -97 50 -117
l27 -27 -102 -40 c-55 -22 -153 -55 -216 -74 -114 -35 -115 -35 -136 -16 -17
16 -36 19 -117 19 -91 0 -102 2 -194 41 -54 23 -108 51 -121 62 -48 44 -57
108 -54 396 1 200 -1 283 -13 342 -17 90 -9 160 30 263 21 56 25 84 25 172 0
98 3 113 34 193 19 47 40 105 47 129 l12 42 19 -27 c10 -16 27 -57 39 -93z
m2059 -1000 l0 -640 -887 0 c-608 1 -882 4 -870 11 9 5 17 18 17 28 0 14 34
29 173 75 94 31 217 76 272 100 136 59 411 203 449 236 17 14 65 50 106 80
242 172 481 408 659 648 42 56 77 102 78 102 2 0 3 -288 3 -640z m-4791 400
c132 -158 332 -347 495 -469 84 -64 401 -271 413 -271 3 0 67 -27 142 -61 181
-81 453 -171 631 -208 l145 -30 -987 0 -988 -1 0 616 0 615 51 -68 c28 -37 72
-93 98 -123z m3690 -704 c-2 -2 -19 -11 -36 -20 -32 -16 -33 -16 -33 4 0 16 7
20 37 20 20 0 34 -2 32 -4z m-659 -296 c0 -13 -40 -22 -81 -18 l-34 4 35 11
c45 14 80 16 80 3z m-385 -12 l40 -12 -45 -7 c-55 -9 -176 -11 -167 -3 11 11
82 33 107 34 14 0 43 -5 65 -12z m-275 -24 c0 -2 -7 -4 -15 -4 -8 0 -15 4 -15
10 0 5 7 7 15 4 8 -4 15 -8 15 -10z m515 6 c14 -6 0 -8 -45 -8 -54 1 -59 2
-30 8 47 10 52 10 75 0z"/>
<path d="M5066 4830 c-57 -18 -85 -35 -75 -45 3 -2 27 4 55 14 27 10 64 21 82
24 30 6 32 5 22 -12 -5 -11 -23 -22 -40 -26 -22 -5 -36 -17 -49 -43 -11 -21
-33 -50 -50 -66 -32 -31 -39 -46 -20 -46 16 0 75 67 89 101 8 18 22 30 41 34
38 9 59 30 59 61 0 30 -29 31 -114 4z"/>
<path d="M821 4806 c-20 -24 1 -48 78 -89 89 -48 97 -27 9 23 -62 35 -84 60
-53 60 9 0 36 -11 59 -25 45 -27 136 -45 136 -28 0 6 -19 14 -42 17 -24 4 -62
18 -85 32 -47 27 -85 31 -102 10z"/>
<path d="M2810 4650 c-15 -27 -3 -41 15 -17 10 15 22 16 69 11 l56 -7 0 -47
c0 -38 -5 -51 -22 -62 -13 -9 -19 -20 -16 -30 8 -20 75 -33 93 -18 10 8 14 8
17 -1 6 -18 28 -1 28 22 0 16 -5 18 -27 13 -16 -4 -33 -11 -39 -16 -7 -5 -16
-3 -23 6 -8 9 -8 16 -2 20 13 8 26 115 15 126 -5 5 -41 12 -81 15 -67 7 -72 6
-83 -15z"/>
<path d="M2938 4432 c-14 -2 -31 -9 -37 -16 -9 -10 6 -12 72 -8 45 2 84 6 86
8 15 14 -57 23 -121 16z"/>
<path d="M3010 3020 c-8 -5 -25 -10 -38 -10 -21 0 -22 -1 -7 -24 9 -13 14 -30
13 -37 -2 -7 2 -13 9 -14 6 0 15 -3 19 -7 16 -17 22 -6 17 27 -4 26 -1 41 12
55 14 15 15 20 4 20 -8 0 -21 -5 -29 -10z"/>
<path d="M3275 2948 c-39 -110 -63 -193 -58 -201 10 -17 28 27 79 196 6 19
-14 24 -21 5z"/>
<path d="M2700 2922 c0 -4 8 -38 19 -75 19 -69 67 -151 82 -141 10 6 -5 39
-20 49 -11 6 -35 70 -51 133 -6 23 -15 42 -20 42 -6 0 -10 -3 -10 -8z"/>
</g>
</svg>
