<svg width="97" height="97" viewBox="0 0 97 97" fill="none" xmlns="http://www.w3.org/2000/svg">
    <g clip-path="url(#clip0)">
    <path d="M48.2823 48.7182C48.0345 48.7182 47.7866 48.6607 47.5594 48.5476L24.92 37.2279C24.3721 36.9539 24.0264 36.3935 24.0264 35.781C24.0264 35.1685 24.3721 34.609 24.92 34.3351L47.5594 23.0154C48.0138 22.7882 48.5509 22.7882 49.0053 23.0154L71.6447 34.3351C72.1925 34.609 72.5383 35.1685 72.5383 35.781C72.5383 36.3935 72.1925 36.9539 71.6447 37.2279L49.0053 48.5476C48.7781 48.6607 48.5302 48.7182 48.2823 48.7182ZM29.2587 35.781L48.2823 45.2928L67.3051 35.781L48.2823 26.2701L29.2587 35.781Z" fill="#ffffff"/>
    <path d="M48.2823 26.0788C48.0345 26.0788 47.7866 26.0222 47.5594 25.9082L24.92 14.5894C24.3721 14.3155 24.0264 13.755 24.0264 13.1425C24.0264 12.53 24.3721 11.9696 24.92 11.6957L47.5594 0.376899C48.0138 0.148781 48.5509 0.148781 49.0053 0.376899L71.6447 11.6957C72.1925 11.9696 72.5383 12.53 72.5383 13.1425C72.5383 13.755 72.1925 14.3155 71.6447 14.5894L49.0053 25.9082C48.7781 26.0222 48.5302 26.0788 48.2823 26.0788ZM29.2587 13.1425L48.2823 22.6535L67.3051 13.1425L48.2823 3.63073L29.2587 13.1425Z" fill="#ffffff"/>
    <path d="M46.665 1.82288H49.8991V24.4623H46.665V1.82288Z" fill="#ffffff"/>
    <path d="M95.1769 77.8249H1.38799C0.494379 77.8249 -0.229492 77.1019 -0.229492 76.2083V14.7592C-0.229492 13.8664 0.494379 13.1426 1.38799 13.1426H25.644V16.3766H3.00458V74.5908H93.5603V16.3766H70.921V13.1426H95.1769C96.0714 13.1426 96.7944 13.8664 96.7944 14.7601V76.2083C96.7944 77.1019 96.0714 77.8249 95.1769 77.8249Z" fill="#ffffff"/>
    <path d="M88.7084 71.3568H7.85577C6.96215 71.3568 6.23828 70.6338 6.23828 69.7393V21.2282C6.23828 20.3346 6.96215 19.6107 7.85577 19.6107H25.6436V22.8448H9.47235V68.1227H87.0918V22.8448H70.9206V19.6107H88.7084C89.6029 19.6107 90.3259 20.3346 90.3259 21.2282V69.7402C90.3259 70.6338 89.6029 71.3568 88.7084 71.3568Z" fill="#F5723C"/>
    <path d="M57.9848 90.7621H38.5804C37.6877 90.7621 36.9629 90.0382 36.9629 89.1446V76.2083C36.9629 75.3138 37.6868 74.5908 38.5804 74.5908H57.9848C58.8793 74.5908 59.6023 75.3138 59.6023 76.2083V89.1446C59.6023 90.0382 58.8784 90.7621 57.9848 90.7621ZM40.197 87.5271H56.3682V77.8249H40.197V87.5271Z" fill="#ffffff"/>
    <path d="M69.3046 97.2302H27.2607C26.527 97.2302 25.8857 96.7372 25.698 96.0277C25.5094 95.3191 25.822 94.5718 26.4587 94.209L37.7775 87.7408C38.0218 87.6016 38.2993 87.5271 38.5795 87.5271H57.9849C58.266 87.5271 58.5417 87.6016 58.7869 87.7408L70.1066 94.209C70.7424 94.5718 71.055 95.3191 70.8672 96.0277C70.6795 96.7372 70.0374 97.2302 69.3046 97.2302ZM33.3499 93.9961H63.2154L57.5556 90.7621H39.0097L33.3499 93.9961Z" fill="#ffffff"/>
    <path d="M48.2835 48.7183C47.988 48.7183 47.6925 48.6366 47.433 48.4767C46.957 48.1812 46.666 47.6612 46.666 47.1008V24.4623C46.666 23.8489 47.0118 23.2894 47.5605 23.0155L70.199 11.6958C70.6993 11.4461 71.2947 11.4721 71.7716 11.7667C72.2485 12.0613 72.5395 12.5822 72.5395 13.1426V35.7811C72.5395 36.3936 72.1937 36.954 71.645 37.2279L49.0065 48.5476C48.7784 48.6608 48.5305 48.7183 48.2835 48.7183ZM49.901 25.4619V44.4846L69.3054 34.7815V15.7588L49.901 25.4619Z" fill="#ffffff"/>
    <path d="M48.2833 48.7183C48.0363 48.7183 47.7885 48.6608 47.5604 48.5476L24.921 37.2279C24.3731 36.954 24.0273 36.3936 24.0273 35.7811V13.1426C24.0273 12.5822 24.3174 12.0613 24.7943 11.7667C25.2721 11.4721 25.8667 11.447 26.3678 11.6958L49.0063 23.0155C49.555 23.2894 49.9008 23.8489 49.9008 24.4623V47.1008C49.9008 47.6612 49.6098 48.1812 49.1338 48.4767C48.8743 48.6366 48.5788 48.7183 48.2833 48.7183ZM27.2614 34.7815L46.6658 44.4846V25.4619L27.2614 15.7588V34.7815Z" fill="#F5723C"/>
    </g>
    <defs>
    <clipPath id="clip0">
    <rect width="97" height="97" fill="#ffffff"/>
    </clipPath>
    </defs>
</svg>