<svg width="105" height="105" viewBox="0 0 105 105" fill="none" xmlns="http://www.w3.org/2000/svg">
    <g clip-path="url(#clip0)">
    <path fill-rule="evenodd" clip-rule="evenodd" d="M85.7502 105.203H1.75038C0.783465 105.203 0 104.419 0 103.453V85.9534C0 84.9865 0.783465 84.2031 1.75038 84.2031H13.9998V70.2032H1.75038C0.783465 70.2032 0 69.4198 0 68.4528V50.953C0 49.9861 0.783465 49.2027 1.75038 49.2027H42.8278L57.2074 22.4455C57.8362 21.2735 59.021 20.5044 60.3468 20.4083C61.7367 20.3066 63.081 20.9242 63.9085 22.0449L71.8168 32.5857L75.4674 29.8467C76.1523 29.3341 76.5352 28.5113 76.4864 27.6566L76.3117 24.5051C76.1964 22.4815 77.1032 20.5357 78.7254 19.3212L82.376 16.5823L80.8403 14.5347C80.2603 13.7617 80.4173 12.6642 81.1904 12.0842L95.6276 1.25347C97.9475 -0.483288 101.236 -0.0146503 102.978 2.3013L103.95 3.59906C105.689 5.91822 105.219 9.20829 102.901 10.9475L88.4619 21.779C88.159 22.0065 87.7905 22.1299 87.4116 22.1291C87.3283 22.1299 87.2458 22.1234 87.1641 22.1122C86.7043 22.0465 86.2901 21.8006 86.0121 21.4297L84.4756 19.3821L80.8251 22.1202C80.1401 22.6337 79.7572 23.4557 79.8053 24.3104L79.9807 27.4619C80.0953 29.4855 79.1893 31.4321 77.567 32.6466L73.9157 35.3855L81.8232 45.9262C82.5242 46.8635 82.7853 48.0587 82.5386 49.2027H85.7502C86.7171 49.2027 87.5005 49.9861 87.5005 50.953V66.7033H99.75C100.717 66.7033 101.5 67.4867 101.5 68.4528V85.9534C101.5 86.9195 100.717 87.703 99.75 87.703H87.5005V103.453C87.5005 104.419 86.7171 105.203 85.7502 105.203ZM100.178 4.40175C99.597 3.6287 98.5003 3.47249 97.7281 4.05248L84.6887 13.8338L87.7609 17.9305L100.8 8.14845C101.572 7.56846 101.729 6.47257 101.15 5.69952L100.178 4.40175ZM56.0001 87.703H31.5004V101.703H56.0001V87.703ZM70 70.2032H45.5003V84.2031H70V70.2032ZM59.5001 101.703H84.0006V87.703H59.5001V101.703ZM73.4999 70.2032V84.2031H98.0004V70.2032H73.4999ZM59.5001 66.7033H84.0006V52.7026H77.4124L59.5001 56.5126V66.7033ZM60.6104 23.8987C60.4742 23.9027 60.3508 23.9812 60.2916 24.1037L43.4871 55.3694C43.3918 55.5665 43.4198 55.8004 43.5592 55.9687C43.6834 56.1481 43.8997 56.2402 44.1152 56.2066L78.8336 48.8237C78.9681 48.7997 79.0779 48.7044 79.1196 48.5746C79.186 48.388 79.1492 48.1805 79.0234 48.0267L71.1159 37.4859L63.8965 42.9021C63.1226 43.4813 62.0259 43.3251 61.4459 42.552C60.8659 41.7782 61.023 40.6815 61.796 40.1015L69.0154 34.6853L61.1087 24.1446C61.0029 23.9924 60.8307 23.9003 60.6448 23.8971L60.6104 23.8987ZM44.8434 59.6296C43.2933 59.9629 41.6927 59.3517 40.7602 58.0691C39.7941 56.8138 39.6539 55.1083 40.4037 53.712L40.9461 52.7026H31.5004V66.7033H56.0001V57.2568L44.8434 59.6296ZM42.0003 70.2032H17.4998V84.2031H42.0003V70.2032ZM28.0005 87.703H3.49996V101.703H28.0005V87.703ZM3.49996 52.7026V59.7033V66.7033H28.0005V52.7026H3.49996Z" fill="#ffffff"/>
    </g>
    <defs>
    <clipPath id="clip0">
    <rect width="105" height="105" fill="#ffffff"/>
    </clipPath>
    </defs>
</svg>