<svg width="116" height="126" viewBox="0 0 116 126" fill="none" xmlns="http://www.w3.org/2000/svg">
<path d="M105.243 125.998C104.154 125.998 103.274 125.118 103.274 124.029C103.274 122.941 104.154 122.061 105.243 122.061C108.499 122.061 111.149 119.411 111.149 116.154C111.149 112.898 108.499 110.248 105.243 110.248C104.154 110.248 103.274 109.368 103.274 108.279C103.274 107.191 104.154 106.311 105.243 106.311C110.671 106.311 115.087 110.726 115.087 116.154C115.087 121.582 110.671 125.998 105.243 125.998Z" fill="white"/>
<path d="M113.118 59.0546C112.029 59.0546 111.149 58.1726 111.149 57.0858C111.149 53.8295 108.499 51.1796 105.243 51.1796C104.154 51.1796 103.274 50.2976 103.274 49.2108C103.274 48.1241 104.154 47.2421 105.243 47.2421C110.671 47.2421 115.087 51.658 115.087 57.0858C115.087 58.1726 114.207 59.0546 113.118 59.0546Z" fill="white"/>
<path d="M105.243 110.248C104.154 110.248 103.274 109.368 103.274 108.279V49.2108C103.274 48.1241 104.154 47.2421 105.243 47.2421C106.332 47.2421 107.212 48.1241 107.212 49.2108V108.279C107.212 109.368 106.332 110.248 105.243 110.248Z" fill="white"/>
<path d="M113.118 118.123C112.029 118.123 111.149 117.243 111.149 116.154V57.0858C111.149 55.9991 112.029 55.1171 113.118 55.1171C114.207 55.1171 115.087 55.9991 115.087 57.0858V116.154C115.087 117.243 114.207 118.123 113.118 118.123Z" fill="white"/>
<path d="M10.7588 125.998C5.33095 125.998 0.915039 121.582 0.915039 116.154C0.915039 110.726 5.33095 106.311 10.7588 106.311C11.8475 106.311 12.7275 107.191 12.7275 108.279C12.7275 109.368 11.8475 110.248 10.7588 110.248C7.50248 110.248 4.85254 112.898 4.85254 116.154C4.85254 119.411 7.50248 122.061 10.7588 122.061C11.8475 122.061 12.7275 122.941 12.7275 124.029C12.7275 125.118 11.8475 125.998 10.7588 125.998Z" fill="white"/>
<path d="M2.88379 59.0546C1.79507 59.0546 0.915039 58.1726 0.915039 57.0858C0.915039 51.658 5.33095 47.2421 10.7588 47.2421C11.8475 47.2421 12.7275 48.1241 12.7275 49.2108C12.7275 50.2976 11.8475 51.1796 10.7588 51.1796C7.50248 51.1796 4.85254 53.8295 4.85254 57.0858C4.85254 58.1726 3.97251 59.0546 2.88379 59.0546Z" fill="white"/>
<path d="M10.7588 110.248C9.67007 110.248 8.79004 109.368 8.79004 108.279V49.2108C8.79004 48.1241 9.67007 47.2421 10.7588 47.2421C11.8475 47.2421 12.7275 48.1241 12.7275 49.2108V108.279C12.7275 109.368 11.8475 110.248 10.7588 110.248Z" fill="white"/>
<path d="M2.88379 118.123C1.79507 118.123 0.915039 117.243 0.915039 116.154V57.0858C0.915039 55.9991 1.79507 55.1171 2.88379 55.1171C3.97251 55.1171 4.85254 55.9991 4.85254 57.0858V116.154C4.85254 117.243 3.97251 118.123 2.88379 118.123Z" fill="white"/>
<path d="M40.2852 66.9119H10.75C9.66128 66.9119 8.78125 66.0318 8.78125 64.9431C8.78125 63.8564 9.66128 62.9744 10.75 62.9744H40.2852C41.3739 62.9744 42.2539 63.8564 42.2539 64.9431C42.2539 66.0318 41.3739 66.9119 40.2852 66.9119Z" fill="white"/>
<path d="M105.242 125.998H10.75C9.66128 125.998 8.78125 125.118 8.78125 124.029C8.78125 122.941 9.66128 122.061 10.75 122.061H105.242C106.331 122.061 107.211 122.941 107.211 124.029C107.211 125.118 106.331 125.998 105.242 125.998Z" fill="white"/>
<path d="M40.2861 96.4569C39.1974 96.4569 38.3174 95.5769 38.3174 94.4882V31.498C38.3174 30.4112 39.1974 29.5292 40.2861 29.5292C41.3749 29.5292 42.2549 30.4112 42.2549 31.498V94.4882C42.2549 95.5769 41.3749 96.4569 40.2861 96.4569Z" fill="white"/>
<path d="M75.7129 96.4569C74.6242 96.4569 73.7441 95.5769 73.7441 94.4882V31.498C73.7441 30.4112 74.6242 29.5292 75.7129 29.5292C76.8016 29.5292 77.6816 30.4112 77.6816 31.498V94.4882C77.6816 95.5769 76.8016 96.4569 75.7129 96.4569Z" fill="white"/>
<path d="M75.7118 33.4667H40.2861C39.1974 33.4667 38.3174 32.5847 38.3174 31.498C38.3174 30.4112 39.1974 29.5292 40.2861 29.5292H75.7118C76.8005 29.5292 77.6806 30.4112 77.6806 31.498C77.6806 32.5847 76.8005 33.4667 75.7118 33.4667Z" fill="white"/>
<path d="M83.5907 96.4569H32.4111C31.3224 96.4569 30.4424 95.5769 30.4424 94.4882C30.4424 93.3994 31.3224 92.5194 32.4111 92.5194H83.5907C84.6795 92.5194 85.5595 93.3994 85.5595 94.4882C85.5595 95.5769 84.6795 96.4569 83.5907 96.4569Z" fill="white"/>
<path d="M50.1299 86.6131C49.0412 86.6131 48.1611 85.7331 48.1611 84.6444V39.371C48.1611 38.2843 49.0412 37.4023 50.1299 37.4023C51.2186 37.4023 52.0986 38.2843 52.0986 39.371V84.6444C52.0986 85.7331 51.2186 86.6131 50.1299 86.6131Z" fill="#F5723C"/>
<path d="M58.001 78.7381C56.9123 78.7381 56.0322 77.8581 56.0322 76.7694V39.371C56.0322 38.2843 56.9123 37.4023 58.001 37.4023C59.0897 37.4023 59.9697 38.2843 59.9697 39.371V76.7694C59.9697 77.8581 59.0897 78.7381 58.001 78.7381Z" fill="#F5723C"/>
<path d="M65.8711 86.6131C64.7824 86.6131 63.9023 85.7331 63.9023 84.6444V39.371C63.9023 38.2843 64.7824 37.4023 65.8711 37.4023C66.9598 37.4023 67.8398 38.2843 67.8398 39.371V84.6444C67.8398 85.7331 66.9598 86.6131 65.8711 86.6131Z" fill="#F5723C"/>
<path d="M54.0635 33.4667C52.9748 33.4667 52.0947 32.5847 52.0947 31.498V25.5917C52.0947 24.505 52.9748 23.623 54.0635 23.623C55.1522 23.623 56.0322 24.505 56.0322 25.5917V31.498C56.0322 32.5847 55.1522 33.4667 54.0635 33.4667Z" fill="white"/>
<path d="M61.9336 33.4667C60.8449 33.4667 59.9648 32.5847 59.9648 31.498V25.5917C59.9648 24.505 60.8449 23.623 61.9336 23.623C63.0223 23.623 63.9023 24.505 63.9023 25.5917V31.498C63.9023 32.5847 63.0223 33.4667 61.9336 33.4667Z" fill="white"/>
<path d="M46.1924 33.4668C45.1037 33.4668 44.2236 32.5848 44.2236 31.498V17.7187C44.2236 16.632 45.1037 15.75 46.1924 15.75C47.2811 15.75 48.1611 16.632 48.1611 17.7187V31.498C48.1611 32.5848 47.2811 33.4668 46.1924 33.4668Z" fill="white"/>
<path d="M69.8066 33.4668C68.7179 33.4668 67.8379 32.5848 67.8379 31.498V17.7187C67.8379 16.632 68.7179 15.75 69.8066 15.75C70.8954 15.75 71.7754 16.632 71.7754 17.7187V31.498C71.7754 32.5848 70.8954 33.4668 69.8066 33.4668Z" fill="white"/>
<path d="M69.8056 19.6875H46.1924C45.1037 19.6875 44.2236 18.8055 44.2236 17.7187C44.2236 16.632 45.1037 15.75 46.1924 15.75H69.8056C70.8943 15.75 71.7743 16.632 71.7743 17.7187C71.7743 18.8055 70.8943 19.6875 69.8056 19.6875Z" fill="white"/>
<path d="M52.0947 19.6875C51.006 19.6875 50.126 18.8055 50.126 17.7188V9.84375C50.126 8.757 51.006 7.875 52.0947 7.875C53.1834 7.875 54.0635 8.757 54.0635 9.84375V17.7188C54.0635 18.8055 53.1834 19.6875 52.0947 19.6875Z" fill="white"/>
<path d="M63.9072 19.6875C62.8185 19.6875 61.9385 18.8055 61.9385 17.7188V9.84375C61.9385 8.757 62.8185 7.875 63.9072 7.875C64.9959 7.875 65.876 8.757 65.876 9.84375V17.7188C65.876 18.8055 64.9959 19.6875 63.9072 19.6875Z" fill="white"/>
<path d="M63.9072 11.8125H52.0947C51.006 11.8125 50.126 10.9305 50.126 9.84375C50.126 8.757 51.006 7.875 52.0947 7.875H63.9072C64.9959 7.875 65.876 8.757 65.876 9.84375C65.876 10.9305 64.9959 11.8125 63.9072 11.8125Z" fill="white"/>
<path d="M58.001 11.8125C56.9123 11.8125 56.0322 10.9305 56.0322 9.84373V1.9707C56.0322 0.883953 56.9123 0.00195312 58.001 0.00195312C59.0897 0.00195312 59.9697 0.883953 59.9697 1.9707V9.84373C59.9697 10.9305 59.0897 11.8125 58.001 11.8125Z" fill="white"/>
<path d="M58.001 96.4569C56.9123 96.4569 56.0322 95.5769 56.0322 94.4882V86.6132C56.0322 85.5244 56.9123 84.6444 58.001 84.6444C59.0897 84.6444 59.9697 85.5244 59.9697 86.6132V94.4882C59.9697 95.5769 59.0897 96.4569 58.001 96.4569Z" fill="white"/>
<path d="M105.243 67.0201H75.7119C74.6232 67.0201 73.7432 66.1401 73.7432 65.0514C73.7432 63.9646 74.6232 63.0826 75.7119 63.0826H105.243C106.332 63.0826 107.212 63.9646 107.212 65.0514C107.212 66.1401 106.332 67.0201 105.243 67.0201Z" fill="white"/>
<path d="M97.373 106.332H26.502C25.4132 106.332 24.5332 105.452 24.5332 104.363C24.5332 103.275 25.4132 102.395 26.502 102.395H97.373C98.4617 102.395 99.3418 103.275 99.3418 104.363C99.3418 105.452 98.4617 106.332 97.373 106.332Z" fill="#F5723C"/>
<path d="M97.373 114.207C96.2843 114.207 95.4043 113.327 95.4043 112.238V104.363C95.4043 103.275 96.2843 102.395 97.373 102.395C98.4618 102.395 99.3418 103.275 99.3418 104.363V112.238C99.3418 113.327 98.4618 114.207 97.373 114.207Z" fill="#F5723C"/>
<path d="M97.373 114.207H26.502C25.4132 114.207 24.5332 113.327 24.5332 112.238C24.5332 111.15 25.4132 110.27 26.502 110.27H97.373C98.4617 110.27 99.3418 111.15 99.3418 112.238C99.3418 113.327 98.4617 114.207 97.373 114.207Z" fill="#F5723C"/>
<path d="M26.4997 114.207C26.2044 114.207 25.9031 114.14 25.6216 114L17.7466 110.063C16.7741 109.577 16.3803 108.393 16.8666 107.421C17.3548 106.448 18.5381 106.057 19.5086 106.541L27.3836 110.478C28.3562 110.965 28.75 112.148 28.2637 113.12C27.9172 113.809 27.2222 114.207 26.4997 114.207Z" fill="#F5723C"/>
<path d="M18.6286 110.27C17.9061 110.27 17.2111 109.872 16.8646 109.181C16.3783 108.209 16.7721 107.025 17.7447 106.539L25.6197 102.602C26.5922 102.119 27.7735 102.509 28.2617 103.482C28.748 104.454 28.3543 105.637 27.3817 106.124L19.5067 110.061C19.2252 110.203 18.9239 110.27 18.6286 110.27Z" fill="#F5723C"/>
<path d="M89.498 114.207C88.4093 114.207 87.5293 113.327 87.5293 112.238V104.363C87.5293 103.275 88.4093 102.395 89.498 102.395C90.5868 102.395 91.4668 103.275 91.4668 104.363V112.238C91.4668 113.327 90.5868 114.207 89.498 114.207Z" fill="#F5723C"/>
<path d="M81.623 114.207C80.5343 114.207 79.6543 113.327 79.6543 112.238V104.363C79.6543 103.275 80.5343 102.395 81.623 102.395C82.7118 102.395 83.5918 103.275 83.5918 104.363V112.238C83.5918 113.327 82.7118 114.207 81.623 114.207Z" fill="#F5723C"/>
</svg>