<svg width="113" height="113" viewBox="0 0 113 113" fill="none" xmlns="http://www.w3.org/2000/svg">
    <path d="M15.8906 72.3906C14.843 72.3906 13.8189 72.7013 12.9478 73.2833C12.0768 73.8653 11.3979 74.6926 10.997 75.6605C10.596 76.6284 10.4911 77.6934 10.6955 78.7209C10.8999 79.7484 11.4044 80.6922 12.1452 81.433C12.886 82.1737 13.8298 82.6782 14.8573 82.8826C15.8848 83.087 16.9498 82.9821 17.9177 82.5812C18.8855 82.1803 19.7128 81.5014 20.2948 80.6303C20.8768 79.7592 21.1875 78.7351 21.1875 77.6875C21.1859 76.2832 20.6274 74.9368 19.6343 73.9438C18.6413 72.9508 17.295 72.3922 15.8906 72.3906ZM15.8906 79.4531C15.5414 79.4531 15.2001 79.3496 14.9097 79.1556C14.6193 78.9616 14.393 78.6858 14.2594 78.3632C14.1258 78.0406 14.0908 77.6855 14.1589 77.343C14.2271 77.0005 14.3952 76.6859 14.6421 76.439C14.8891 76.1921 15.2037 76.0239 15.5462 75.9558C15.8887 75.8877 16.2437 75.9226 16.5663 76.0563C16.8889 76.1899 17.1647 76.4162 17.3587 76.7066C17.5527 76.9969 17.6563 77.3383 17.6563 77.6875C17.6557 78.1556 17.4695 78.6044 17.1385 78.9354C16.8075 79.2664 16.3587 79.4526 15.8906 79.4531Z" fill="#F5723C"/>
    <path d="M82.9844 72.3906C81.9368 72.3906 80.9127 72.7013 80.0416 73.2833C79.1705 73.8653 78.4916 74.6926 78.0907 75.6605C77.6898 76.6284 77.5849 77.6934 77.7893 78.7209C77.9937 79.7484 78.4981 80.6922 79.2389 81.433C79.9797 82.1737 80.9235 82.6782 81.951 82.8826C82.9785 83.087 84.0435 82.9821 85.0114 82.5812C85.9793 82.1803 86.8065 81.5014 87.3886 80.6303C87.9706 79.7592 88.2813 78.7351 88.2813 77.6875C88.2797 76.2832 87.7211 74.9368 86.7281 73.9438C85.7351 72.9508 84.3887 72.3922 82.9844 72.3906ZM82.9844 79.4531C82.6352 79.4531 82.2938 79.3496 82.0035 79.1556C81.7131 78.9616 81.4868 78.6858 81.3532 78.3632C81.2195 78.0406 81.1846 77.6855 81.2527 77.343C81.3208 77.0005 81.489 76.6859 81.7359 76.439C81.9828 76.1921 82.2974 76.0239 82.6399 75.9558C82.9824 75.8877 83.3374 75.9226 83.6601 76.0563C83.9827 76.1899 84.2584 76.4162 84.4524 76.7066C84.6465 76.9969 84.75 77.3383 84.75 77.6875C84.7495 78.1556 84.5633 78.6044 84.2323 78.9354C83.9013 79.2664 83.4525 79.4526 82.9844 79.4531Z" fill="#F5723C"/>
    <path d="M95.3437 77.6876C95.3437 76.0468 95.017 74.4224 94.3826 72.9092C93.7483 71.396 92.819 70.0243 91.649 68.874C90.4789 67.7237 89.0916 66.8179 87.5678 66.2095C86.044 65.601 84.4143 65.302 82.7738 65.3299C76.075 65.4418 70.6249 71.0636 70.6249 77.8619V83.7933C65.7882 82.4768 58.7341 81.2188 49.4374 81.2188C40.1408 81.2188 33.0867 82.4768 28.2499 83.7933V77.6876C28.2499 76.0241 27.9142 74.3778 27.2627 72.8472C26.6112 71.3166 25.6575 69.9333 24.4587 68.7801C23.2598 67.6269 21.8405 66.7276 20.2858 66.136C18.7311 65.5445 17.073 65.2729 15.4108 65.3374C12.3045 65.4683 9.36075 66.761 7.16237 68.9594C4.96399 71.1577 3.67136 74.1015 3.54046 77.2077C3.42262 80.2602 4.4388 83.2483 6.39315 85.5962C8.3475 87.944 11.1017 89.4853 14.1249 89.9231V97.1094C14.127 98.9819 14.8718 100.777 16.1958 102.101C17.5198 103.425 19.315 104.17 21.1874 104.172V109.469C21.1874 109.937 21.3735 110.386 21.7046 110.717C22.0357 111.048 22.4848 111.234 22.9531 111.234H28.2499C28.5778 111.234 28.8992 111.143 29.1781 110.971C29.457 110.798 29.6824 110.552 29.8291 110.258L32.8723 104.172H66.0025L69.0458 110.258C69.1925 110.552 69.4178 110.798 69.6968 110.971C69.9757 111.143 70.2971 111.234 70.6249 111.234H75.9218C76.3901 111.234 76.8392 111.048 77.1703 110.717C77.5014 110.386 77.6874 109.937 77.6874 109.469V104.172C79.5599 104.17 81.355 103.425 82.6791 102.101C84.0031 100.777 84.7478 98.9819 84.7499 97.1094V89.9211C87.69 89.4928 90.3779 88.0213 92.3228 85.7753C94.2678 83.5293 95.34 80.6586 95.3437 77.6876ZM27.1588 107.703H24.7187V104.172H28.9244L27.1588 107.703ZM74.1562 107.703H71.7161L69.9505 104.172H74.1562V107.703ZM82.9843 86.5157C82.516 86.5157 82.0669 86.7017 81.7358 87.0328C81.4047 87.3639 81.2187 87.813 81.2187 88.2813V97.1094C81.2176 98.0456 80.8452 98.9432 80.1832 99.6052C79.5212 100.267 78.6236 100.64 77.6874 100.641H21.1874C20.2512 100.64 19.3537 100.267 18.6917 99.6052C18.0297 98.9432 17.6573 98.0456 17.6562 97.1094V88.2813C17.6562 87.813 17.4702 87.3639 17.1391 87.0328C16.8079 86.7017 16.3588 86.5157 15.8906 86.5157C14.7021 86.5157 13.5259 86.2758 12.4325 85.8103C11.339 85.3447 10.3508 84.6632 9.52702 83.8066C8.70328 82.95 8.06098 81.9358 7.63862 80.825C7.21626 79.7141 7.02254 78.5295 7.06906 77.3419C7.16262 75.1242 8.08555 73.0225 9.6551 71.453C11.2246 69.8834 13.3264 68.9605 15.5441 68.8669C16.7316 68.8203 17.9163 69.0139 19.0272 69.4361C20.1381 69.8584 21.1523 70.5006 22.009 71.3243C22.8657 72.1479 23.5473 73.1361 24.0129 74.2295C24.4785 75.3229 24.7186 76.4991 24.7187 77.6876V84.8825C21.9354 85.8536 20.4728 86.6574 20.3218 86.7423L22.0493 89.8223C22.1404 89.7715 31.3824 84.7501 49.4374 84.7501C67.4925 84.7501 76.7344 89.7715 76.8218 89.8203L78.553 86.7423C78.4021 86.6574 76.9395 85.8527 74.1562 84.8825V77.8619C74.1562 72.9786 78.0485 68.9406 82.8327 68.8608C83.9983 68.8406 85.1564 69.0514 86.2401 69.4812C87.3238 69.911 88.3117 70.5512 89.1466 71.3648C89.9816 72.1784 90.6471 73.1493 91.1049 74.2215C91.5626 75.2937 91.8034 76.446 91.8134 77.6117C91.8234 78.7775 91.6024 79.9337 91.1632 81.0136C90.724 82.0935 90.0752 83.0757 89.2543 83.9036C88.4334 84.7314 87.4567 85.3884 86.3806 85.8368C85.3044 86.2851 84.1501 86.5158 82.9843 86.5157Z" fill="#ffffff"/>
    <path d="M17.6562 52.9688C17.6574 52.0325 18.0298 51.135 18.6918 50.473C19.3538 49.811 20.2513 49.4386 21.1875 49.4375H77.6875C78.6237 49.4386 79.5212 49.811 80.1833 50.473C80.8452 51.135 81.2176 52.0325 81.2188 52.9688V61.7969H84.75V52.9688C84.7479 51.0963 84.0031 49.3012 82.6791 47.9771C81.3551 46.6531 79.5599 45.9084 77.6875 45.9062H21.1875C19.3151 45.9084 17.5199 46.6531 16.1959 47.9771C14.8719 49.3012 14.1271 51.0963 14.125 52.9688V61.7969H17.6562V52.9688Z" fill="#ffffff"/>
    <path d="M38.8438 56.5H42.375V60.0312H38.8438V56.5Z" fill="#ffffff"/>
    <path d="M47.6719 65.3281H51.2031V68.8594H47.6719V65.3281Z" fill="#ffffff"/>
    <path d="M30.0156 65.3281H33.5469V68.8594H30.0156V65.3281Z" fill="#ffffff"/>
    <path d="M38.8438 74.1562H42.375V77.6875H38.8438V74.1562Z" fill="#ffffff"/>
    <path d="M56.5 56.5H60.0312V60.0312H56.5V56.5Z" fill="#ffffff"/>
    <path d="M65.3281 65.3281H68.8594V68.8594H65.3281V65.3281Z" fill="#ffffff"/>
    <path d="M56.5 74.1562H60.0312V77.6875H56.5V74.1562Z" fill="#ffffff"/>
    <path d="M102.406 1.76562H52.9688C51.0963 1.76773 49.3012 2.51249 47.9771 3.83651C46.6531 5.16053 45.9084 6.95568 45.9062 8.82812V10.5938H49.4375V8.82812C49.4386 7.89192 49.811 6.99438 50.473 6.33238C51.135 5.67038 52.0325 5.29798 52.9688 5.29688H75.9219V42.375H79.4531V5.29688H102.406C103.342 5.29798 104.24 5.67038 104.902 6.33238C105.564 6.99438 105.936 7.89192 105.938 8.82812V97.1094C105.936 98.0456 105.564 98.9431 104.902 99.6051C104.24 100.267 103.342 100.64 102.406 100.641H86.5156V104.172H90.7213L93.7646 110.258C93.9113 110.552 94.1367 110.798 94.4156 110.971C94.6945 111.143 95.0159 111.234 95.3438 111.234H100.641C101.109 111.234 101.558 111.048 101.889 110.717C102.22 110.386 102.406 109.937 102.406 109.469V104.172C104.279 104.17 106.074 103.425 107.398 102.101C108.722 100.777 109.467 98.9818 109.469 97.1094V8.82812C109.467 6.95568 108.722 5.16053 107.398 3.83651C106.074 2.51249 104.279 1.76773 102.406 1.76562ZM98.875 107.703H96.4349L94.6693 104.172H98.875V107.703Z" fill="#ffffff"/>
    <path d="M15.8906 38.8438H31.7812V42.375H35.3124V38.8438H51.2031C51.4473 38.8437 51.6889 38.7931 51.9125 38.6949C52.1362 38.5968 52.337 38.4533 52.5024 38.2736C52.6677 38.0938 52.794 37.8818 52.8732 37.6507C52.9524 37.4197 52.9828 37.1747 52.9625 36.9314L51.1969 15.7439C51.1601 15.3025 50.9588 14.8912 50.6329 14.5913C50.307 14.2915 49.8803 14.125 49.4374 14.125H35.3124V10.5938H31.7812V14.125H17.6562C17.2133 14.125 16.7867 14.2915 16.4608 14.5913C16.1349 14.8912 15.9335 15.3025 15.8967 15.7439L14.1311 36.9314C14.1108 37.1747 14.1412 37.4197 14.2204 37.6507C14.2996 37.8818 14.4259 38.0938 14.5913 38.2736C14.7566 38.4533 14.9575 38.5968 15.1811 38.6949C15.4048 38.7931 15.6463 38.8437 15.8906 38.8438ZM19.2808 17.6562H47.8128L49.2843 35.3125H17.8093L19.2808 17.6562Z" fill="#F5723C"/>
</svg>