<svg width="85" height="97" viewBox="0 0 85 97" fill="none" xmlns="http://www.w3.org/2000/svg">
<path fill-rule="evenodd" clip-rule="evenodd" d="M43.334 1.06671L83.6064 24.3477C84.0406 24.5988 84.3081 25.0628 84.3081 25.5649V72.1269C84.3081 72.629 84.0406 73.0923 83.6064 73.3434L43.334 96.6244C43.1169 96.7503 42.8742 96.8132 42.6323 96.8132C42.3896 96.8132 42.1476 96.7503 41.9305 96.6244L31.2588 90.4557C30.5878 90.0671 30.3575 89.2078 30.7449 88.5359C31.1324 87.864 31.9905 87.6327 32.6623 88.0214L41.2288 92.9736V50.5857C41.0541 50.6596 40.8706 50.6955 40.6886 50.6955C40.2032 50.6955 39.7317 50.4437 39.4722 49.9928C39.2207 49.5566 39.2303 49.0428 39.4503 48.6293L3.76342 27.9985V69.0528C3.83725 68.984 3.91985 68.9226 4.01122 68.8699L5.95565 67.7456C6.6267 67.3577 7.48561 67.5875 7.87303 68.2602C8.26046 68.9321 8.03093 69.7914 7.35915 70.1793L5.41472 71.3035C5.19396 71.4316 4.952 71.4923 4.7137 71.4923C4.36502 71.4923 4.02438 71.3599 3.76342 71.1191V71.3152L27.745 85.1793C28.416 85.5672 28.6463 86.4272 28.2588 87.0991C27.8714 87.771 27.0125 88.0016 26.3415 87.6137L1.65817 73.3441C1.22396 73.0931 0.956421 72.629 0.956421 72.1269V25.5649C0.956421 25.0628 1.22396 24.5988 1.65817 24.3477L41.9305 1.06671C42.3647 0.815656 42.8998 0.815656 43.334 1.06671ZM44.0358 45.9175V46.4115L80.0976 25.5649L44.0358 4.71754V6.57223C44.0358 7.34807 43.4079 7.97752 42.6323 7.97752C41.8574 7.97752 41.2288 7.34807 41.2288 6.57223V4.71754L5.16691 25.5649L41.2288 46.4115V45.9175C41.2288 45.1409 41.8574 44.5122 42.6323 44.5122C43.4079 44.5122 44.0358 45.1409 44.0358 45.9175ZM44.0358 50.5864V92.9736L81.5011 71.3152V71.1191C81.2394 71.3599 80.8995 71.4923 80.5508 71.4923C80.3125 71.4923 80.0713 71.4316 79.8498 71.3035L77.9054 70.1793C77.2336 69.7914 77.0041 68.9321 77.3915 68.2602C77.7789 67.5875 78.6371 67.357 79.3089 67.7456L81.2533 68.8699C81.3447 68.9218 81.4266 68.984 81.5011 69.0521V27.9985L45.8143 48.6293C46.0343 49.0428 46.0438 49.5573 45.7923 49.9928C45.5328 50.4437 45.0606 50.6955 44.576 50.6955C44.394 50.6955 44.2105 50.6596 44.0358 50.5864ZM60.3675 56.7954L64.2198 59.0226C64.8916 59.4106 65.1212 60.2706 64.7337 60.9425C64.4742 61.3933 64.002 61.6451 63.5174 61.6451C63.2791 61.6451 63.0378 61.5844 62.8163 61.457L58.964 59.2298C58.293 58.8419 58.0627 57.9818 58.4501 57.3099C58.8376 56.638 59.6957 56.4075 60.3675 56.7954ZM54.7492 53.5479L50.8969 51.3207C50.2258 50.9328 49.3669 51.1626 48.9795 51.8352C48.592 52.5071 48.8223 53.3671 49.4934 53.755L53.3457 55.9823C53.5672 56.1096 53.8084 56.1704 54.046 56.1704C54.5313 56.1704 55.0028 55.9186 55.2631 55.4677C55.6505 54.7958 55.4202 53.9358 54.7492 53.5479ZM69.8382 62.27L73.6905 64.4973C74.3616 64.8852 74.5918 65.7452 74.2044 66.4171C73.9442 66.868 73.4727 67.1197 72.9873 67.1197C72.7497 67.1197 72.5085 67.059 72.287 66.9316L68.4347 64.7044C67.7636 64.3165 67.5334 63.4565 67.9208 62.7846C68.3082 62.1127 69.1664 61.8821 69.8382 62.27ZM31.9189 55.9821L35.7712 53.7549C36.4423 53.367 36.6726 52.507 36.2851 51.8351C35.8977 51.1631 35.0388 50.9326 34.3677 51.3205L30.5154 53.5478C29.8444 53.9357 29.6141 54.7957 30.0015 55.4676C30.2618 55.9185 30.7333 56.1702 31.2186 56.1702C31.4562 56.1702 31.6974 56.1095 31.9189 55.9821ZM11.5741 64.4982L15.4264 62.271C16.0974 61.8831 16.9556 62.1129 17.3438 62.7848C17.7312 63.4574 17.5009 64.3167 16.8299 64.7046L12.9776 66.9319C12.7568 67.0592 12.5156 67.1207 12.2773 67.1207C11.7919 67.1207 11.3204 66.8682 11.0602 66.4173C10.6728 65.7454 10.903 64.8861 11.5741 64.4982ZM24.8971 56.7962L21.0448 59.0227C20.3737 59.4113 20.1435 60.2706 20.5309 60.9425C20.7911 61.3934 21.2626 61.6452 21.748 61.6452C21.9855 61.6452 22.2275 61.5844 22.4483 61.4571L26.3006 59.2298C26.9716 58.8419 27.2019 57.9826 26.8145 57.31C26.427 56.6381 25.5681 56.4075 24.8971 56.7962ZM41.2288 34.968C41.2288 34.1914 41.8575 33.5627 42.6323 33.5627C43.4072 33.5627 44.0358 34.1914 44.0358 34.968V39.4218C44.0358 40.1976 43.4079 40.8271 42.6323 40.8271C41.8575 40.8271 41.2288 40.1976 41.2288 39.4218V34.968ZM42.6323 11.6629C41.8575 11.6629 41.2288 12.2924 41.2288 13.0682V17.522C41.2288 18.2985 41.8575 18.9273 42.6323 18.9273C43.4079 18.9273 44.0358 18.2985 44.0358 17.522V13.0682C44.0358 12.2924 43.4072 11.6629 42.6323 11.6629ZM41.2288 24.0177C41.2288 23.2419 41.8575 22.6124 42.6323 22.6124C43.4072 22.6124 44.0358 23.2419 44.0358 24.0177V28.4715C44.0358 29.2481 43.4079 29.8768 42.6323 29.8768C41.8575 29.8768 41.2288 29.2481 41.2288 28.4715V24.0177Z" fill="white"/>
</svg>
