<svg width="276" height="274" viewBox="0 0 276 274" fill="none" xmlns="http://www.w3.org/2000/svg">
<path fill-rule="evenodd" clip-rule="evenodd" d="M275.673 274L264.499 262.907L253.323 274H252.673L241.499 262.907L230.325 274H229.673L218.499 262.907L207.323 274H206.675L195.499 262.907L184.325 274H183.673L172.499 262.907L161.325 274H160.675L149.5 262.907L138.324 274H137.672L126.498 262.907L115.324 274H114.674L103.5 262.907L92.3252 274H91.6721L80.498 262.907L69.324 274H68.675L57.4999 262.907L46.3248 274H45.6738L34.4977 262.907L23.3236 274H22.6747L11.4996 262.907L0.324494 274H0L0 273.676L11.173 262.583L0 251.49L0 228.01L11.173 216.916L0 205.823L0 182.343L11.173 171.25L0 160.156L0 136.676L11.173 125.583L0 114.49L0 91.0108L11.173 79.9157L0 68.8227L0 45.3439L11.173 34.2487L0 23.1557L0 0H0.324494L0.228272 0.0934753L0.228272 22.2807L11.173 11.4162L22.6747 0H23.3236L34.8242 11.4162L45.77 22.2807V0.0934753L45.6738 0H46.3248L46.2286 0.0934753V22.2807L57.1734 11.4162L68.675 0H69.324L80.8246 11.4162L91.7693 22.2807V0.0934753L91.6721 0H92.3252L92.2279 0.0934753V22.2807L103.175 11.4162L114.674 0H115.324L126.824 11.4162L137.771 22.2807V0.0934753L137.672 0H138.324L138.228 0.0934753V22.2807L149.175 11.4162L160.675 0H161.325L172.825 11.4162L183.769 22.2807V0.0934753L183.673 0H184.325L184.23 0.0934753V22.2807L195.173 11.4162L206.675 0H207.323L218.826 11.4162L229.769 22.2807V0.0934753L229.673 0H230.325L230.23 0.0934753V22.2807L241.174 11.4162L252.673 0H253.323L264.825 11.4162L275.77 22.2807V0.0934753L275.673 0H276V23.1557L264.825 34.2487L276 45.3439V68.8227L264.825 79.9157L276 91.0108V114.49L264.825 125.583L276 136.676V160.156L264.825 171.25L276 182.343V205.823L264.825 216.916L276 228.01V251.49L264.825 262.583L276 273.676V274H275.673ZM218.826 262.583L230 273.676L241.174 262.583L230 251.49L218.826 262.583ZM172.825 262.583L183.999 273.676L195.173 262.583L183.999 251.49L172.825 262.583ZM126.824 262.583L137.999 273.676L149.175 262.583L137.999 251.49L126.824 262.583ZM80.8246 262.583L91.9986 273.676L103.175 262.583L91.9986 251.49L80.8246 262.583ZM34.8242 262.583L45.9983 273.676L57.1734 262.583L45.9983 251.49L34.8242 262.583ZM253.229 251.261V273.449L264.175 262.583L275.673 251.168L264.499 240.073L253.229 251.261ZM230.325 251.168L241.825 262.583L252.77 273.449V251.261L241.499 240.073L230.325 251.168ZM207.229 251.261V273.449L218.175 262.583L229.673 251.168L218.499 240.073L207.229 251.261ZM184.325 251.168L195.824 262.583L206.769 273.449V251.261L195.499 240.073L184.325 251.168ZM161.228 251.261V273.449L172.174 262.583L183.673 251.168L172.499 240.073L161.228 251.261ZM138.324 251.168L149.824 262.583L160.768 273.449V251.261L149.5 240.073L138.324 251.168ZM115.228 251.261V273.449L126.174 262.583L137.672 251.168L126.498 240.073L115.228 251.261ZM92.3252 251.168L103.825 262.583L114.768 273.449V251.261L103.5 240.073L92.3252 251.168ZM69.2288 251.261V273.449L80.1735 262.583L91.6721 251.168L80.498 240.073L69.2288 251.261ZM46.3248 251.168L57.8234 262.583L68.7681 273.449V251.261L57.4999 240.073L46.3248 251.168ZM23.2284 251.261V273.449L34.1742 262.583L45.6738 251.168L34.4977 240.073L23.2284 251.261ZM0.324494 251.168L11.8241 262.583L22.7688 273.449V251.261L11.4996 240.073L0.324494 251.168ZM241.825 239.75L252.999 250.844L264.175 239.75L252.999 228.657L241.825 239.75ZM195.824 239.75L207.001 250.844L218.175 239.75L207.001 228.657L195.824 239.75ZM149.824 239.75L161 250.844L172.174 239.75L161 228.657L149.824 239.75ZM103.825 239.75L115 250.844L126.174 239.75L115 228.657L103.825 239.75ZM57.8234 239.75L68.9995 250.844L80.1735 239.75L68.9995 228.657L57.8234 239.75ZM11.8241 239.75L22.9991 250.844L34.1742 239.75L22.9991 228.657L11.8241 239.75ZM253.323 228.333L264.825 239.75L275.77 250.617V228.429L264.499 217.24L253.323 228.333ZM230.23 228.429V250.617L241.174 239.75L252.673 228.333L241.499 217.24L230.23 228.429ZM207.323 228.333L218.826 239.75L229.769 250.617V228.429L218.499 217.24L207.323 228.333ZM184.23 228.429V250.617L195.173 239.75L206.675 228.333L195.499 217.24L184.23 228.429ZM161.325 228.333L172.825 239.75L183.769 250.617V228.429L172.499 217.24L161.325 228.333ZM138.228 228.429V250.617L149.175 239.75L160.675 228.333L149.5 217.24L138.228 228.429ZM115.324 228.333L126.824 239.75L137.771 250.617V228.429L126.498 217.24L115.324 228.333ZM92.2279 228.429V250.617L103.175 239.75L114.674 228.333L103.5 217.24L92.2279 228.429ZM69.324 228.333L80.8246 239.75L91.7693 250.617V228.429L80.498 217.24L69.324 228.333ZM46.2286 228.429V250.617L57.1734 239.75L68.675 228.333L57.4999 217.24L46.2286 228.429ZM23.3236 228.333L34.8242 239.75L45.77 250.617V228.429L34.4977 217.24L23.3236 228.333ZM0.228272 228.429L0.228272 250.617L11.173 239.75L22.6747 228.333L11.4996 217.24L0.228272 228.429ZM218.826 216.916L230 228.01L241.174 216.916L230 205.823L218.826 216.916ZM172.825 216.916L183.999 228.01L195.173 216.916L183.999 205.823L172.825 216.916ZM126.824 216.916L137.999 228.01L149.175 216.916L137.999 205.823L126.824 216.916ZM80.8246 216.916L91.9986 228.01L103.175 216.916L91.9986 205.823L80.8246 216.916ZM34.8242 216.916L45.9983 228.01L57.1734 216.916L45.9983 205.823L34.8242 216.916ZM253.229 205.594V227.782L264.175 216.916L275.673 205.502L264.499 194.406L253.229 205.594ZM230.325 205.502L241.825 216.916L252.77 227.782V205.594L241.499 194.406L230.325 205.502ZM207.229 205.594V227.782L218.175 216.916L229.673 205.502L218.499 194.406L207.229 205.594ZM184.325 205.502L195.824 216.916L206.769 227.782V205.594L195.499 194.406L184.325 205.502ZM161.228 205.594V227.782L172.174 216.916L183.673 205.502L172.499 194.406L161.228 205.594ZM138.324 205.502L149.824 216.916L160.768 227.782V205.594L149.5 194.406L138.324 205.502ZM115.228 205.594V227.782L126.174 216.916L137.672 205.502L126.498 194.406L115.228 205.594ZM92.3252 205.502L103.825 216.916L114.768 227.782V205.594L103.5 194.406L92.3252 205.502ZM69.2288 205.594V227.782L80.1735 216.916L91.6721 205.502L80.498 194.406L69.2288 205.594ZM46.3248 205.502L57.8234 216.916L68.7681 227.782V205.594L57.4999 194.406L46.3248 205.502ZM23.2284 205.594V227.782L34.1742 216.916L45.6738 205.502L34.4977 194.406L23.2284 205.594ZM0.324494 205.502L11.8241 216.916L22.7688 227.782V205.594L11.4996 194.406L0.324494 205.502ZM241.825 194.083L252.999 205.177L264.175 194.083L252.999 182.99L241.825 194.083ZM195.824 194.083L207.001 205.177L218.175 194.083L207.001 182.99L195.824 194.083ZM149.824 194.083L161 205.177L172.174 194.083L161 182.99L149.824 194.083ZM103.825 194.083L115 205.177L126.174 194.083L115 182.99L103.825 194.083ZM57.8234 194.083L68.9995 205.177L80.1735 194.083L68.9995 182.99L57.8234 194.083ZM11.8241 194.083L22.9991 205.177L34.1742 194.083L22.9991 182.99L11.8241 194.083ZM253.323 182.666L264.825 194.083L275.77 204.95V182.762L264.499 171.573L253.323 182.666ZM230.23 182.762V204.95L241.174 194.083L252.673 182.666L241.499 171.573L230.23 182.762ZM207.323 182.666L218.826 194.083L229.769 204.95V182.762L218.499 171.573L207.323 182.666ZM184.23 182.762V204.95L195.173 194.083L206.675 182.666L195.499 171.573L184.23 182.762ZM161.325 182.666L172.825 194.083L183.769 204.95V182.762L172.499 171.573L161.325 182.666ZM138.228 182.762V204.95L149.175 194.083L160.675 182.666L149.5 171.573L138.228 182.762ZM115.324 182.666L126.824 194.083L137.771 204.95V182.762L126.498 171.573L115.324 182.666ZM92.2279 182.762V204.95L103.175 194.083L114.674 182.666L103.5 171.573L92.2279 182.762ZM69.324 182.666L80.8246 194.083L91.7693 204.95V182.762L80.498 171.573L69.324 182.666ZM46.2286 182.762V204.95L57.1734 194.083L68.675 182.666L57.4999 171.573L46.2286 182.762ZM23.3236 182.666L34.8242 194.083L45.77 204.95V182.762L34.4977 171.573L23.3236 182.666ZM0.228272 182.762L0.228272 204.95L11.173 194.083L22.6747 182.666L11.4996 171.573L0.228272 182.762ZM218.826 171.25L230 182.343L241.174 171.25L230 160.156L218.826 171.25ZM172.825 171.25L183.999 182.343L195.173 171.25L183.999 160.156L172.825 171.25ZM126.824 171.25L137.999 182.343L149.175 171.25L137.999 160.156L126.824 171.25ZM80.8246 171.25L91.9986 182.343L103.175 171.25L91.9986 160.156L80.8246 171.25ZM34.8242 171.25L45.9983 182.343L57.1734 171.25L45.9983 160.156L34.8242 171.25ZM253.229 159.927V182.115L264.175 171.25L275.673 159.835L264.499 148.739L253.229 159.927ZM230.325 159.835L241.825 171.25L252.77 182.115V159.927L241.499 148.739L230.325 159.835ZM207.229 159.927V182.115L218.175 171.25L229.673 159.835L218.499 148.739L207.229 159.927ZM184.325 159.835L195.824 171.25L206.769 182.115V159.927L195.499 148.739L184.325 159.835ZM161.228 159.927V182.115L172.174 171.25L183.673 159.835L172.499 148.739L161.228 159.927ZM138.324 159.835L149.824 171.25L160.768 182.115V159.927L149.5 148.739L138.324 159.835ZM115.228 159.927V182.115L126.174 171.25L137.672 159.835L126.498 148.739L115.228 159.927ZM92.3252 159.835L103.825 171.25L114.768 182.115V159.927L103.5 148.739L92.3252 159.835ZM69.2288 159.927V182.115L80.1735 171.25L91.6721 159.835L80.498 148.739L69.2288 159.927ZM46.3248 159.835L57.8234 171.25L68.7681 182.115V159.927L57.4999 148.739L46.3248 159.835ZM23.2284 159.927V182.115L34.1742 171.25L45.6738 159.835L34.4977 148.739L23.2284 159.927ZM0.324494 159.835L11.8241 171.25L22.7688 182.115V159.927L11.4996 148.739L0.324494 159.835ZM241.825 148.417L252.999 159.511L264.175 148.417L252.999 137.323L241.825 148.417ZM195.824 148.417L207.001 159.511L218.175 148.417L207.001 137.323L195.824 148.417ZM149.824 148.417L161 159.511L172.174 148.417L161 137.323L149.824 148.417ZM103.825 148.417L115 159.511L126.174 148.417L115 137.323L103.825 148.417ZM57.8234 148.417L68.9995 159.511L80.1735 148.417L68.9995 137.323L57.8234 148.417ZM11.8241 148.417L22.9991 159.511L34.1742 148.417L22.9991 137.323L11.8241 148.417ZM253.323 136.999L264.825 148.417L275.77 159.283V137.094L264.499 125.906L253.323 136.999ZM230.23 137.094V159.283L241.174 148.417L252.673 136.999L241.499 125.906L230.23 137.094ZM207.323 136.999L218.826 148.417L229.769 159.283V137.094L218.499 125.906L207.323 136.999ZM184.23 137.094V159.283L195.173 148.417L206.675 136.999L195.499 125.906L184.23 137.094ZM161.325 136.999L172.825 148.417L183.769 159.283V137.094L172.499 125.906L161.325 136.999ZM138.228 137.094V159.283L149.175 148.417L160.675 136.999L149.5 125.906L138.228 137.094ZM115.324 136.999L126.824 148.417L137.771 159.283V137.094L126.498 125.906L115.324 136.999ZM92.2279 137.094L92.2279 159.283L103.175 148.417L114.674 136.999L103.5 125.906L92.2279 137.094ZM69.324 136.999L80.8246 148.417L91.7693 159.283L91.7693 137.094L80.498 125.906L69.324 136.999ZM46.2286 137.094V159.283L57.1734 148.417L68.675 136.999L57.4999 125.906L46.2286 137.094ZM23.3236 136.999L34.8242 148.417L45.77 159.283V137.094L34.4977 125.906L23.3236 136.999ZM0.228272 137.094L0.228272 159.283L11.173 148.417L22.6747 136.999L11.4996 125.906L0.228272 137.094ZM218.826 125.583L230 136.676L241.174 125.583L230 114.49L218.826 125.583ZM172.825 125.583L183.999 136.676L195.173 125.583L183.999 114.49L172.825 125.583ZM126.824 125.583L137.999 136.676L149.175 125.583L137.999 114.49L126.824 125.583ZM80.8246 125.583L91.9986 136.676L103.175 125.583L91.9986 114.49L80.8246 125.583ZM34.8242 125.583L45.9983 136.676L57.1734 125.583L45.9983 114.49L34.8242 125.583ZM253.229 114.261V136.449L264.175 125.583L275.673 114.167L264.499 103.072L253.229 114.261ZM230.325 114.167L241.825 125.583L252.77 136.449V114.261L241.499 103.072L230.325 114.167ZM207.229 114.261V136.449L218.175 125.583L229.673 114.167L218.499 103.072L207.229 114.261ZM184.325 114.167L195.824 125.583L206.769 136.449V114.261L195.499 103.072L184.325 114.167ZM161.228 114.261V136.449L172.174 125.583L183.673 114.167L172.499 103.072L161.228 114.261ZM138.324 114.167L149.824 125.583L160.768 136.449V114.261L149.5 103.072L138.324 114.167ZM115.228 114.261V136.449L126.174 125.583L137.672 114.167L126.498 103.072L115.228 114.261ZM92.3252 114.167L103.825 125.583L114.768 136.449V114.261L103.5 103.072L92.3252 114.167ZM69.2288 114.261V136.449L80.1735 125.583L91.6721 114.167L80.498 103.072L69.2288 114.261ZM46.3248 114.167L57.8234 125.583L68.7681 136.449V114.261L57.4999 103.072L46.3248 114.167ZM23.2284 114.261L23.2284 136.449L34.1742 125.583L45.6738 114.167L34.4977 103.072L23.2284 114.261ZM0.324494 114.167L11.8241 125.583L22.7688 136.449L22.7688 114.261L11.4996 103.072L0.324494 114.167ZM241.825 102.751L252.999 113.844L264.175 102.751L252.999 91.6561L241.825 102.751ZM195.824 102.751L207.001 113.844L218.175 102.751L207.001 91.6561L195.824 102.751ZM149.824 102.751L161 113.844L172.174 102.751L161 91.6561L149.824 102.751ZM103.825 102.751L115 113.844L126.174 102.751L115 91.6561L103.825 102.751ZM57.8234 102.751L68.9995 113.844L80.1735 102.751L68.9995 91.6561L57.8234 102.751ZM11.8241 102.751L22.9991 113.844L34.1742 102.751L22.9991 91.6561L11.8241 102.751ZM253.323 91.332L264.825 102.751L275.77 113.616V91.4275L264.499 80.2389L253.323 91.332ZM230.23 91.4275V113.616L241.174 102.751L252.673 91.332L241.499 80.2389L230.23 91.4275ZM207.323 91.332L218.826 102.751L229.769 113.616V91.4275L218.499 80.2389L207.323 91.332ZM184.23 91.4275V113.616L195.173 102.751L206.675 91.332L195.499 80.2389L184.23 91.4275ZM161.325 91.332L172.825 102.751L183.769 113.616V91.4275L172.499 80.2389L161.325 91.332ZM138.228 91.4275V113.616L149.175 102.751L160.675 91.332L149.5 80.2389L138.228 91.4275ZM115.324 91.332L126.824 102.751L137.771 113.616V91.4275L126.498 80.2389L115.324 91.332ZM92.2279 91.4275V113.616L103.175 102.751L114.674 91.332L103.5 80.2389L92.2279 91.4275ZM69.324 91.332L80.8246 102.751L91.7693 113.616V91.4275L80.498 80.2389L69.324 91.332ZM46.2286 91.4275L46.2286 113.616L57.1734 102.751L68.675 91.332L57.4999 80.2389L46.2286 91.4275ZM23.3236 91.332L34.8242 102.751L45.77 113.616L45.77 91.4275L34.4977 80.2389L23.3236 91.332ZM0.228272 91.4275L0.228272 113.616L11.173 102.751L22.6747 91.332L11.4996 80.2389L0.228272 91.4275ZM218.826 79.9157L230 91.0108L241.174 79.9157L230 68.8227L218.826 79.9157ZM172.825 79.9157L183.999 91.0108L195.173 79.9157L183.999 68.8227L172.825 79.9157ZM126.824 79.9157L137.999 91.0108L149.175 79.9157L137.999 68.8227L126.824 79.9157ZM80.8246 79.9157L91.9986 91.0108L103.175 79.9157L91.9986 68.8227L80.8246 79.9157ZM34.8242 79.9157L45.9983 91.0108L57.1734 79.9157L45.9983 68.8227L34.8242 79.9157ZM253.229 68.594V90.7822L264.175 79.9157L275.673 68.5005L264.499 57.4064L253.229 68.594ZM230.325 68.5005L241.825 79.9157L252.77 90.7822V68.594L241.499 57.4064L230.325 68.5005ZM207.229 68.594V90.7822L218.175 79.9157L229.673 68.5005L218.499 57.4064L207.229 68.594ZM184.325 68.5005L195.824 79.9157L206.769 90.7822V68.594L195.499 57.4064L184.325 68.5005ZM161.228 68.594V90.7822L172.174 79.9157L183.673 68.5005L172.499 57.4064L161.228 68.594ZM138.324 68.5005L149.824 79.9157L160.768 90.7822V68.594L149.5 57.4064L138.324 68.5005ZM115.228 68.594V90.7822L126.174 79.9157L137.672 68.5005L126.498 57.4064L115.228 68.594ZM92.3252 68.5005L103.825 79.9157L114.768 90.7822V68.594L103.5 57.4064L92.3252 68.5005ZM69.2288 68.594V90.7822L80.1735 79.9157L91.6721 68.5005L80.498 57.4064L69.2288 68.594ZM46.3248 68.5005L57.8234 79.9157L68.7681 90.7822V68.594L57.4999 57.4064L46.3248 68.5005ZM23.2284 68.594L23.2284 90.7822L34.1742 79.9157L45.6738 68.5005L34.4977 57.4064L23.2284 68.594ZM0.324494 68.5005L11.8241 79.9157L22.7688 90.7822L22.7688 68.594L11.4996 57.4064L0.324494 68.5005ZM241.825 57.0843L252.999 68.1773L264.175 57.0843L252.999 45.9892L241.825 57.0843ZM195.824 57.0843L207.001 68.1773L218.175 57.0843L207.001 45.9892L195.824 57.0843ZM149.824 57.0843L161 68.1773L172.174 57.0843L161 45.9892L149.824 57.0843ZM103.825 57.0843L115 68.1773L126.174 57.0843L115 45.9892L103.825 57.0843ZM57.8234 57.0843L68.9995 68.1773L80.1735 57.0843L68.9995 45.9892L57.8234 57.0843ZM11.8241 57.0843L22.9991 68.1773L34.1742 57.0843L22.9991 45.9892L11.8241 57.0843ZM253.323 45.666L264.825 57.0843L275.77 67.9487V45.7595L264.499 34.5719L253.323 45.666ZM230.23 45.7595V67.9487L241.174 57.0843L252.673 45.666L241.499 34.5719L230.23 45.7595ZM207.323 45.666L218.826 57.0843L229.769 67.9487V45.7595L218.499 34.5719L207.323 45.666ZM184.23 45.7595V67.9487L195.173 57.0843L206.675 45.666L195.499 34.5719L184.23 45.7595ZM161.325 45.666L172.825 57.0843L183.769 67.9487V45.7595L172.499 34.5719L161.325 45.666ZM138.228 45.7595V67.9487L149.175 57.0843L160.675 45.666L149.5 34.5719L138.228 45.7595ZM115.324 45.666L126.824 57.0843L137.771 67.9487V45.7595L126.498 34.5719L115.324 45.666ZM92.2279 45.7595V67.9487L103.175 57.0843L114.674 45.666L103.5 34.5719L92.2279 45.7595ZM69.324 45.666L80.8246 57.0843L91.7693 67.9487V45.7595L80.498 34.5719L69.324 45.666ZM46.2286 45.7595V67.9487L57.1734 57.0843L68.675 45.666L57.4999 34.5719L46.2286 45.7595ZM23.3236 45.666L34.8242 57.0843L45.77 67.9487V45.7595L34.4977 34.5719L23.3236 45.666ZM0.228272 45.7595L0.228272 67.9487L11.173 57.0843L22.6747 45.666L11.4996 34.5719L0.228272 45.7595ZM218.826 34.2487L230 45.3439L241.174 34.2487L230 23.1557L218.826 34.2487ZM172.825 34.2487L183.999 45.3439L195.173 34.2487L183.999 23.1557L172.825 34.2487ZM126.824 34.2487L137.999 45.3439L149.175 34.2487L137.999 23.1557L126.824 34.2487ZM80.8246 34.2487L91.9986 45.3439L103.175 34.2487L91.9986 23.1557L80.8246 34.2487ZM34.8242 34.2487L45.9983 45.3439L57.1734 34.2487L45.9983 23.1557L34.8242 34.2487ZM253.229 22.928L253.229 45.1152L264.175 34.2487L275.673 22.8325L264.499 11.7394L253.229 22.928ZM230.325 22.8325L241.825 34.2487L252.77 45.1152L252.77 22.928L241.499 11.7394L230.325 22.8325ZM207.229 22.928L207.229 45.1152L218.175 34.2487L229.673 22.8325L218.499 11.7394L207.229 22.928ZM184.325 22.8325L195.824 34.2487L206.769 45.1152L206.769 22.928L195.499 11.7394L184.325 22.8325ZM161.228 22.928L161.228 45.1152L172.174 34.2487L183.673 22.8325L172.499 11.7394L161.228 22.928ZM138.324 22.8325L149.824 34.2487L160.768 45.1152L160.768 22.928L149.5 11.7394L138.324 22.8325ZM115.228 22.928V45.1152L126.174 34.2487L137.672 22.8325L126.498 11.7394L115.228 22.928ZM92.3252 22.8325L103.825 34.2487L114.768 45.1152V22.928L103.5 11.7394L92.3252 22.8325ZM69.2288 22.928V45.1152L80.1735 34.2487L91.6721 22.8325L80.498 11.7394L69.2288 22.928ZM46.3248 22.8325L57.8234 34.2487L68.7681 45.1152V22.928L57.4999 11.7394L46.3248 22.8325ZM23.2284 22.928V45.1152L34.1742 34.2487L45.6738 22.8325L34.4977 11.7394L23.2284 22.928ZM0.324494 22.8325L11.8241 34.2487L22.7688 45.1152V22.928L11.4996 11.7394L0.324494 22.8325ZM241.825 11.4162L252.999 22.5093L264.175 11.4162L252.999 0.323151L241.825 11.4162ZM195.824 11.4162L207.001 22.5093L218.175 11.4162L207.001 0.323151L195.824 11.4162ZM149.824 11.4162L161 22.5093L172.174 11.4162L161 0.323151L149.824 11.4162ZM103.825 11.4162L115 22.5093L126.174 11.4162L115 0.323151L103.825 11.4162ZM57.8234 11.4162L68.9995 22.5093L80.1735 11.4162L68.9995 0.323151L57.8234 11.4162ZM11.8241 11.4162L22.9991 22.5093L34.1742 11.4162L22.9991 0.323151L11.8241 11.4162Z" fill="#9D9D9D"/>
</svg>
