<svg width="142" height="135" viewBox="0 0 142 135" fill="none" xmlns="http://www.w3.org/2000/svg">
<path d="M55.6278 27.4378L56.4436 27.2849V26.4549V3V1.86652L55.319 2.0078C39.1469 4.03928 26.0258 11.8417 16.0004 25.3602C5.95489 38.9058 1 58.1119 1 82.8464V133V134H2H55.4436H56.4436V133V78.6046V77.6046H55.4436H29.0093C28.9517 77 28.8936 76.4775 28.8348 76.0389C28.7638 75.5098 28.6861 75.0544 28.5927 74.7152V74.7123V74.7083V74.7043V74.7004V74.6964V74.6924V74.6884V74.6844V74.6804V74.6765V74.6725V74.6685V74.6645V74.6605V74.6565V74.6525V74.6485V74.6445V74.6405V74.6365V74.6325V74.6285V74.6245V74.6204V74.6164V74.6124V74.6084V74.6044V74.6003V74.5963V74.5923V74.5883V74.5842V74.5802V74.5762V74.5721V74.5681V74.564V74.56V74.556V74.5519V74.5479V74.5438V74.5398V74.5357V74.5316V74.5276V74.5235V74.5195V74.5154V74.5113V74.5073V74.5032V74.4991V74.4951V74.491V74.4869V74.4828V74.4788V74.4747V74.4706V74.4665V74.4624V74.4583V74.4542V74.4501V74.446V74.4419V74.4378V74.4337V74.4296V74.4255V74.4214V74.4173V74.4132V74.4091V74.405V74.4009V74.3967V74.3926V74.3885V74.3844V74.3802V74.3761V74.372V74.3679V74.3637V74.3596V74.3554V74.3513V74.3472V74.343V74.3389V74.3347V74.3306V74.3264V74.3223V74.3181V74.314V74.3098V74.3056V74.3015V74.2973V74.2932V74.289V74.2848V74.2806V74.2765V74.2723V74.2681V74.2639V74.2598V74.2556V74.2514V74.2472V74.243V74.2388V74.2346V74.2304V74.2262V74.222V74.2178V74.2136V74.2094V74.2052V74.201V74.1968V74.1926V74.1884V74.1842V74.1799V74.1757V74.1715V74.1673V74.1631V74.1588V74.1546V74.1504V74.1461V74.1419V74.1377V74.1334V74.1292V74.1249V74.1207V74.1165V74.1122V74.108V74.1037V74.0994V74.0952V74.0909V74.0867V74.0824V74.0782V74.0739V74.0696V74.0654V74.0611V74.0568V74.0525V74.0483V74.044V74.0397V74.0354V74.0311V74.0268V74.0226V74.0183V74.014V74.0097V74.0054V74.0011V73.9968V73.9925V73.9882V73.9839V73.9796V73.9753V73.9709V73.9666V73.9623V73.958V73.9537V73.9494V73.945V73.9407V73.9364V73.9321V73.9277V73.9234V73.9191V73.9147V73.9104V73.9061V73.9017V73.8974V73.893V73.8887V73.8843V73.88V73.8756V73.8713V73.8669V73.8626V73.8582V73.8538V73.8495V73.8451V73.8407V73.8364V73.832V73.8276V73.8232V73.8189V73.8145V73.8101V73.8057V73.8013V73.797V73.7926V73.7882V73.7838V73.7794V73.775V73.7706V73.7662V73.7618V73.7574V73.753V73.7486V73.7442V73.7397V73.7353V73.7309V73.7265V73.7221V73.7177V73.7132V73.7088V73.7044V73.7V73.6955V73.6911V73.6867V73.6822V73.6778V73.6733V73.6689V73.6645V73.66V73.6556V73.6511V73.6467V73.6422V73.6377V73.6333V73.6288V73.6244V73.6199V73.6154V73.611V73.6065V73.602V73.5976V73.5931V73.5886V73.5841V73.5797V73.5752V73.5707V73.5662V73.5617V73.5572V73.5527V73.5482V73.5437V73.5392V73.5347V73.5302V73.5257V73.5212V73.5167V73.5122V73.5077V73.5032V73.4987V73.4942V73.4896V73.4851V73.4806V73.4761V73.4716V73.467V73.4625V73.458V73.4534V73.4489V73.4444V73.4398V73.4353V73.4307V73.4262V73.4216V73.4171V73.4125V73.408V73.4034V73.3989V73.3943V73.3898V73.3852V73.3806V73.3761V73.3715V73.3669V73.3624V73.3578V73.3532V73.3486V73.3441V73.3395V73.3349V73.3303V73.3257V73.3211V73.3165V73.3119V73.3074V73.3028V73.2982V73.2936V73.289V73.2843V73.2797V73.2751V73.2705V73.2659V73.2613V73.2567V73.2521V73.2475V73.2428V73.2382V73.2336V73.229V73.2243V73.2197V73.2151V73.2104V73.2058V73.2011V73.1965V73.1919V73.1872V73.1826V73.1779V73.1733V73.1686V73.164V73.1593V73.1547V73.15V73.1453V73.1407V73.136V73.1313V73.1267V73.122V73.1173V73.1127V73.108V73.1033V73.0986V73.0939V73.0893V73.0846V73.0799V73.0752V73.0705V73.0658V73.0611V73.0564V73.0517V73.047V73.0423V73.0376V73.0329V73.0282V73.0235V73.0188V73.0141V73.0093V73.0046V72.9999V72.9952V72.9905V72.9857V72.981V72.9763V72.9715V72.9668V72.9621V72.9573V72.9526V72.9479V72.9431V72.9384V72.9336V72.9289V72.9241V72.9194V72.9146V72.9099V72.9051V72.9003V72.8956V72.8908V72.886V72.8813V72.8765V72.8717V72.867V72.8622V72.8574V72.8526V72.8479V72.8431V72.8383V72.8335V72.8287V72.8239V72.8191V72.8143V72.8095V72.8047V72.7999V72.7951V72.7903V72.7855V72.7807V72.7759V72.7711V72.7663V72.7615V72.7566V72.7518V72.747V72.7422V72.7374V72.7325V72.7277V72.7229V72.718V72.7132V72.7084V72.7035V72.6987V72.6938V72.689V72.6842V72.6793V72.6745V72.6696V72.6648V72.6599V72.655V72.6502V72.6453V72.6405V72.6356V72.6307V72.6259V72.621V72.6161C28.5927 65.7431 29.7443 58.7783 32.0558 51.7181L32.0569 51.7148C36.6665 37.4714 44.5549 29.5124 55.6278 27.4378ZM140.161 27.4419L141 27.3053V26.4549V3V1.87044L139.879 2.00738C120.519 4.37175 106.502 13.5251 97.9701 29.4746C89.5188 45.108 85.3055 62.9072 85.3055 82.8464V133V134H86.3055H140H141V133V78.6046V77.6046H140H113.412C113.193 76.7771 113.022 76.0013 112.898 75.2767V75.2731V75.2673V75.2614V75.2556V75.2497V75.2439V75.238V75.2322V75.2263V75.2205V75.2146V75.2088V75.2029V75.1971V75.1912V75.1854V75.1796V75.1737V75.1679V75.162V75.1562V75.1503V75.1445V75.1386V75.1328V75.1269V75.1211V75.1152V75.1094V75.1035V75.0977V75.0918V75.086V75.0801V75.0743V75.0684V75.0626V75.0567V75.0509V75.045V75.0392V75.0333V75.0275V75.0217V75.0158V75.0099V75.0041V74.9983V74.9924V74.9866V74.9807V74.9749V74.969V74.9632V74.9573V74.9515V74.9456V74.9398V74.9339V74.9281V74.9222V74.9164V74.9105V74.9047V74.8988V74.893V74.8871V74.8813V74.8754V74.8696V74.8637V74.8579V74.8521V74.8462V74.8404V74.8345V74.8287V74.8228V74.817V74.8111V74.8053V74.7994V74.7936V74.7877V74.7819V74.776V74.7702V74.7643V74.7585V74.7526V74.7468V74.7409V74.7351V74.7292V74.7234V74.7175V74.7117V74.7058V74.7V74.6942V74.6883V74.6825V74.6766V74.6708V74.6649V74.6591V74.6532V74.6474V74.6415V74.6357V74.6298V74.624V74.6181V74.6123V74.6064V74.6006V74.5947V74.5889V74.583V74.5772V74.5713V74.5655V74.5596V74.5538V74.548V74.5421V74.5363V74.5304V74.5246V74.5187V74.5129V74.507V74.5012V74.4953V74.4895V74.4836V74.4778V74.4719V74.4661V74.4602V74.4544V74.4485V74.4427V74.4368V74.431V74.4251V74.4193V74.4134V74.4076V74.4017V74.3959V74.3901V74.3842V74.3784V74.3725V74.3667V74.3608V74.355V74.3491V74.3433V74.3374V74.3316V74.3257V74.3199V74.314V74.3082V74.3023V74.2965V74.2906V74.2848V74.2789V74.2731V74.2672V74.2614V74.2555V74.2497V74.2439V74.238V74.2322V74.2263V74.2205V74.2146V74.2088V74.2029V74.1971V74.1912V74.1854V74.1795V74.1737V74.1678V74.162V74.1561V74.1503V74.1444V74.1386V74.1327V74.1269V74.121V74.1152V74.1093V74.1035V74.0976V74.0918V74.0859V74.0801V74.0742V74.0684V74.0626V74.0567V74.0509V74.045V74.0392V74.0333V74.0275V74.0216V74.0158V74.0099V74.0041V73.9982V73.9924V73.9865V73.9807V73.9748V73.969V73.9631V73.9573V73.9514V73.9456V73.9397V73.9339V73.928V73.9222V73.9164V73.9105V73.9047V73.8988V73.893V73.8871V73.8813V73.8754V73.8696V73.8637V73.8579V73.852V73.8462V73.8403V73.8345V73.8286V73.8228V73.8169V73.8111V73.8052V73.7994V73.7935V73.7877V73.7818V73.776V73.7701V73.7643V73.7585V73.7526V73.7468V73.7409V73.7351V73.7292V73.7234V73.7175V73.7117V73.7058V73.7V73.6941V73.6883V73.6824V73.6766V73.6707V73.6649V73.659V73.6532V73.6473V73.6415V73.6356V73.6298V73.6239V73.6181V73.6123V73.6064V73.6006V73.5947V73.5889V73.583V73.5772V73.5713V73.5655V73.5596V73.5538V73.5479V73.5421V73.5362V73.5304V73.5245V73.5187V73.5128V73.507V73.5011V73.4953V73.4894V73.4836V73.4777V73.4719V73.466V73.4602V73.4544V73.4485V73.4427V73.4368V73.431V73.4251V73.4193V73.4134V73.4076V73.4017V73.3959V73.39V73.3842V73.3783V73.3725V73.3666V73.3608V73.3549V73.3491V73.3432V73.3374V73.3315V73.3257V73.3198V73.314V73.3082V73.3023V73.2965V73.2906V73.2848V73.2789V73.2731V73.2672V73.2614V73.2555V73.2497V73.2438V73.238V73.2321V73.2263V73.2204V73.2146V73.2087V73.2029V73.197V73.1912V73.1853V73.1795V73.1736V73.1678V73.1619V73.1561V73.1502V73.1444V73.1385V73.1327V73.1269V73.121V73.1152V73.1093V73.1035V73.0976V73.0918V73.0859V73.0801V73.0742V73.0684V73.0625V73.0567V73.0508V73.045V73.0391V73.0333V73.0274V73.0216V73.0157V73.0099V73.004V72.9982V72.9923V72.9865V72.9807V72.9748V72.969V72.9631V72.9573V72.9514V72.9456V72.9397V72.9339V72.928V72.9222V72.9163V72.9105V72.9046V72.8988V72.8929V72.8871V72.8812V72.8754V72.8695V72.8637V72.8578V72.852V72.8461V72.8403V72.8344V72.8286V72.8228V72.8169V72.8111V72.8052V72.7994V72.7935V72.7877V72.7818V72.776V72.7701V72.7643V72.7584V72.7526V72.7467V72.7409V72.735V72.7292V72.7233V72.7175V72.7116V72.7058V72.6999V72.6941V72.6882V72.6824V72.6766V72.6707V72.6649V72.659V72.6532V72.6473V72.6415V72.6356V72.6298V72.6239V72.6181V72.6122V72.6064V72.6005V72.5947V72.5888V72.583V72.5771V72.5713V72.5654V72.5596V72.5537V72.5479V72.542V72.5362V72.5303V72.5245V72.5187V72.5128V72.507V72.5011V72.4953V72.4894V72.4836V72.4777V72.4719V72.466V72.4602V72.4543V72.4485V72.4426V72.4368V72.4309V72.4251V72.4192V72.4134V72.4075V72.4017V72.3958V72.39V72.3841V72.3783V72.3725V72.3666C112.898 61.0305 115.21 51.0509 119.803 42.4008C124.519 33.8331 131.293 28.8849 140.161 27.4419Z" stroke="#F5723C" stroke-width="2"/>
</svg>
