<svg width="102" height="102" viewBox="0 0 102 102" fill="none" xmlns="http://www.w3.org/2000/svg">
<path d="M14.2722 8.76562C22.1413 8.76562 28.5443 15.1679 28.5443 23.0378V26.3311H81.9396C82.7661 26.3311 83.4361 27.0011 83.4361 27.8284C83.4361 28.6548 82.7661 29.3256 81.9396 29.3256H28.5443V37.5092H89.3247C90.1519 37.5092 90.822 38.1792 90.822 39.0064V82.1217C90.822 82.9489 90.1519 83.619 89.3247 83.619H19.0627C18.2355 83.619 17.5655 82.9489 17.5655 82.1217V68.1422C16.5235 67.8231 15.4177 67.6503 14.2722 67.6503C8.05357 67.6503 2.99451 72.7094 2.99451 78.928C2.99451 85.1466 8.05357 90.2056 14.2722 90.2056H99.0055V29.3256H89.3247C88.4983 29.3256 87.8275 28.6548 87.8275 27.8284C87.8275 27.0011 88.4983 26.3311 89.3247 26.3311H100.503C101.33 26.3311 102 27.0011 102 27.8284V91.7029C102 92.5301 101.33 93.2001 100.503 93.2001H14.2722C6.40224 93.2001 0 86.7979 0 78.928V23.0378C0 15.1679 6.40224 8.76562 14.2722 8.76562ZM28.5443 50.2841H38.3247V40.5037H28.5443V50.2841ZM41.3192 77.3311V80.6245H62.2776V77.3311C62.2776 76.5047 62.9485 75.8339 63.7749 75.8339H68.4309C67.7974 73.8674 65.9492 72.4409 63.7749 72.4409C62.9485 72.4409 62.2776 71.7701 62.2776 70.9437V56.5719C62.2776 55.7455 62.9485 55.0746 63.7749 55.0746H68.4309C67.7974 53.1081 65.9492 51.6817 63.7749 51.6817C62.9485 51.6817 62.2776 51.0109 62.2776 50.1844V40.5037H41.3192V70.9437C41.3192 71.7701 40.6484 72.4409 39.822 72.4409H35.166C35.7995 74.4074 37.6477 75.8339 39.822 75.8339C40.6484 75.8339 41.3192 76.5047 41.3192 77.3311ZM65.2722 40.5037V48.8319C68.9056 49.5331 71.6596 52.7362 71.6596 56.5719C71.6596 57.3983 70.9896 58.0692 70.1624 58.0692H65.2722V61.4621H87.8275V40.5037H65.2722ZM87.8275 64.4566H65.2722V69.5912C68.9056 70.2923 71.6596 73.4954 71.6596 77.3311C71.6596 78.1583 70.9896 78.8284 70.1624 78.8284H65.2722V80.6245H87.8275V64.4566ZM20.56 80.6245H38.3247V78.686C34.6905 77.9848 31.9373 74.7794 31.9373 70.9437C31.9373 70.1172 32.6073 69.4464 33.4345 69.4464H38.3247V53.2786H28.5443V78.928C28.5443 79.7552 27.8735 80.4252 27.0471 80.4252C26.2198 80.4252 25.5498 79.7552 25.5498 78.928C25.5498 75.0354 23.5677 71.5981 20.56 69.5701V80.6245ZM14.2722 64.6558C18.8526 64.6558 22.9366 66.8254 25.5498 70.1911V23.0378C25.5498 16.8192 20.4907 11.7601 14.2722 11.7601C8.05357 11.7601 2.99451 16.8192 2.99451 23.0378V70.1911C5.6077 66.8254 9.6909 64.6558 14.2722 64.6558Z" fill="#F5723C"/>
</svg>
